<svg xmlns="http://www.w3.org/2000/svg" width="18.365" height="29.383" viewBox="0 0 18.365 29.383">
  <path id="Path_7" data-name="Path 7" d="M471.508,1021.848a9.193,9.193,0,0,1-9.183-9.182V999.811a1.224,1.224,0,1,1,2.449,0v12.855a6.734,6.734,0,0,0,13.467,0V999.2a4.285,4.285,0,0,0-8.57,0v12.244a1.837,1.837,0,0,0,3.673,0V999.811a1.225,1.225,0,1,1,2.449,0v11.631a4.285,4.285,0,0,1-8.57,0V999.2a6.734,6.734,0,0,1,13.467,0v13.468A9.192,9.192,0,0,1,471.508,1021.848Z" transform="translate(-462.325 -992.465)" fill="#a0a0a0"/>
</svg>
