<svg xmlns="http://www.w3.org/2000/svg" width="14.974" height="15.902" viewBox="0 0 14.974 15.902">
  <g id="Group_118" data-name="Group 118" transform="translate(-907.026 -367.14)">
    <path id="Path_76" data-name="Path 76" d="M922,371.944a14.738,14.738,0,0,1-1.211,5.131,12.188,12.188,0,0,1-2.742,3.893,10.217,10.217,0,0,1-2.7,1.883,1.73,1.73,0,0,1-1.628-.025,11.641,11.641,0,0,1-5.727-6.573,17.373,17.373,0,0,1-.869-3.729,4.219,4.219,0,0,1,.016-1.851,1.376,1.376,0,0,1,.789-.92c.857-.376,1.72-.741,2.584-1.1.982-.412,2-.76,2.942-1.241a2.393,2.393,0,0,1,2.21.006c1.263.548,2.542,1.058,3.814,1.586.492.2.983.41,1.471.624C921.763,369.982,922,370.426,922,371.944Zm-8.3,4.656-.233-.028a4.591,4.591,0,0,0-.341-.438c-.491-.5-.99-1-1.488-1.492s-.734-.489-1.245.015c-.119.116-.239.231-.354.352-.339.358-.343.463.017.826q1.446,1.457,2.9,2.9c.154.154.313.3.522.506a9.181,9.181,0,0,0,.881-.686c1.616-1.6,3.22-3.211,4.828-4.819.79-.79.783-.954-.07-1.708-.424-.374-.627-.372-1.028.029q-2.022,2.018-4.036,4.042A3.5,3.5,0,0,0,913.7,376.6Z" fill="#74b95c"/>
    <path id="Path_77" data-name="Path 77" d="M913.7,376.6a3.5,3.5,0,0,1,.354-.5q2.01-2.028,4.036-4.042c.4-.4.6-.4,1.028-.029.853.754.86.918.07,1.708-1.608,1.608-3.212,3.22-4.828,4.819a9.181,9.181,0,0,1-.881.686c-.209-.2-.368-.352-.522-.506q-1.452-1.451-2.9-2.9c-.36-.363-.356-.468-.017-.826.115-.121.235-.236.354-.352.511-.5.749-.508,1.245-.015s1,.99,1.488,1.492a4.591,4.591,0,0,1,.341.438Z" fill="#fff"/>
  </g>
</svg>
