<svg xmlns="http://www.w3.org/2000/svg" width="18" height="21.6" viewBox="0 0 18 21.6">
  <g id="Group_51" data-name="Group 51" transform="translate(-1376 -27.2)">
    <g id="Group_50" data-name="Group 50">
      <g id="Group_47" data-name="Group 47">
        <g id="Group_46" data-name="Group 46">
          <path id="Path_25" data-name="Path 25" d="M1393.936,45.419l-1.545-2.576a7.65,7.65,0,0,1-1.091-3.937V36.65a6.309,6.309,0,0,0-4.5-6.035V29a1.8,1.8,0,0,0-3.6,0v1.615a6.309,6.309,0,0,0-4.5,6.035v2.256a7.655,7.655,0,0,1-1.09,3.936l-1.546,2.576a.451.451,0,0,0,.386.682h17.1a.449.449,0,0,0,.386-.681Z" fill="#adbdcd"/>
        </g>
      </g>
      <g id="Group_49" data-name="Group 49">
        <g id="Group_48" data-name="Group 48">
          <path id="Path_26" data-name="Path 26" d="M1382.166,47a3.131,3.131,0,0,0,5.668,0Z" fill="#adbdcd"/>
        </g>
      </g>
    </g>
  </g>
</svg>
