<svg xmlns="http://www.w3.org/2000/svg" width="19.999" height="24" viewBox="0 0 19.999 24">
  <g id="Group_92" data-name="Group 92" transform="translate(-435.001 -134)">
    <g id="Group_91" data-name="Group 91">
      <g id="Group_88" data-name="Group 88">
        <g id="Group_87" data-name="Group 87">
          <path id="Path_56" data-name="Path 56" d="M454.929,154.243l-1.717-2.862A8.5,8.5,0,0,1,452,147.007V144.5a7.009,7.009,0,0,0-5-6.705V136a2,2,0,0,0-4,0v1.795a7.009,7.009,0,0,0-5,6.705v2.507a8.506,8.506,0,0,1-1.211,4.373l-1.717,2.862a.5.5,0,0,0,.428.758h19a.5.5,0,0,0,.429-.757Z" fill="#74b95c"/>
        </g>
      </g>
      <g id="Group_90" data-name="Group 90">
        <g id="Group_89" data-name="Group 89">
          <path id="Path_57" data-name="Path 57" d="M441.851,156a3.479,3.479,0,0,0,6.3,0Z" fill="#74b95c"/>
        </g>
      </g>
    </g>
  </g>
</svg>
