<svg xmlns="http://www.w3.org/2000/svg" width="13.55" height="14.006" viewBox="0 0 13.55 14.006">
  <g id="Group_350" data-name="Group 350" transform="translate(-1350.001 -258.222)">
    <g id="Group_349" data-name="Group 349">
      <g id="Group_348" data-name="Group 348">
        <circle id="Ellipse_8" data-name="Ellipse 8" cx="1.656" cy="1.656" r="1.656" transform="translate(1353.735 268.916)" fill="#314963"/>
        <path id="Path_203" data-name="Path 203" d="M1360.223,268.916h0a1.656,1.656,0,1,0,1.656,1.656A1.656,1.656,0,0,0,1360.223,268.916Z" fill="#314963"/>
        <path id="Path_204" data-name="Path 204" d="M1363.044,267.227h-8.633l-.169-.98h7.1a.507.507,0,0,0,.473-.321l1.689-4.258a.506.506,0,0,0-.285-.657.483.483,0,0,0-.188-.035h-9.664l-.405-2.332a.506.506,0,0,0-.507-.422h-1.943a.507.507,0,1,0,0,1.013h1.521l1.453,8.583a.506.506,0,0,0,.506.423h9.056a.507.507,0,1,0,0-1.014Z" fill="#314963"/>
      </g>
    </g>
  </g>
</svg>
