<svg xmlns="http://www.w3.org/2000/svg" width="18" height="17.22" viewBox="0 0 18 17.22">
  <g id="Group_89" data-name="Group 89" transform="translate(-408 -421.89)">
    <g id="Group_88" data-name="Group 88">
      <path id="Path_48" data-name="Path 48" d="M421.592,437.732h-.746a2.615,2.615,0,0,1-1.233-1.607h-5.226a2.615,2.615,0,0,1-1.233,1.607h-.746a.689.689,0,0,0,0,1.378h9.184a.689.689,0,0,0,0-1.378Z" fill="#485e76"/>
      <path id="Path_49" data-name="Path 49" d="M426,423.957a2.066,2.066,0,0,0-2.066-2.067H410.066A2.066,2.066,0,0,0,408,423.957V431.3h18Z" fill="#485e76"/>
      <path id="Path_50" data-name="Path 50" d="M426,432.681H408a2.066,2.066,0,0,0,2.066,2.066h13.868A2.066,2.066,0,0,0,426,432.681Z" fill="#485e76"/>
    </g>
  </g>
</svg>
