<svg xmlns="http://www.w3.org/2000/svg" width="13.595" height="16.732" viewBox="0 0 13.595 16.732">
  <g id="Group_34" data-name="Group 34" transform="translate(-1157.409 -482.848)">
    <g id="Group_33" data-name="Group 33">
      <path id="Path_21" data-name="Path 21" d="M1169.7,484.94h-2.876v-.523a1.569,1.569,0,0,0-1.569-1.569h-2.091a1.569,1.569,0,0,0-1.569,1.569v.523h-2.876a1.307,1.307,0,0,0-1.307,1.307v1.046a.523.523,0,0,0,.523.523h12.549a.523.523,0,0,0,.523-.523v-1.046A1.307,1.307,0,0,0,1169.7,484.94Zm-7.059-.523a.524.524,0,0,1,.523-.523h2.091a.523.523,0,0,1,.523.523v.523h-3.137Z" fill="#606060"/>
      <path id="Path_22" data-name="Path 22" d="M1158.4,488.861a.164.164,0,0,0-.164.172l.432,9.053a1.566,1.566,0,0,0,1.566,1.494h7.941a1.566,1.566,0,0,0,1.566-1.494l.432-9.053a.164.164,0,0,0-.163-.172Zm7.9,1.308a.523.523,0,1,1,1.046,0v6.8a.523.523,0,1,1-1.046,0Zm-2.614,0a.523.523,0,1,1,1.045,0v6.8a.523.523,0,1,1-1.045,0Zm-2.615,0a.523.523,0,1,1,1.046,0v6.8a.523.523,0,1,1-1.046,0Z" fill="#606060"/>
    </g>
  </g>
</svg>
