<svg xmlns="http://www.w3.org/2000/svg" width="88" height="88" viewBox="0 0 88 88">
  <g id="Group_53" data-name="Group 53" transform="translate(-676 -1006)">
    <circle id="Ellipse_16" data-name="Ellipse 16" cx="44" cy="44" r="44" transform="translate(676 1006)" fill="#192a3e"/>
    <g id="Group_52" data-name="Group 52">
      <path id="Path_27" data-name="Path 27" d="M735.963,1069.646c0,.327,0,.655-.01.982-.008.4-.145.55-.536.6a2.345,2.345,0,0,1-.28.008h-26.75c-.07,0-.141,0-.21,0a.553.553,0,0,1-.584-.605c-.015-.35-.01-.7-.014-1.052l0-1.264,0-6.884-.009-4.077c.005-.128.015-.256.015-.384q0-3.966,0-7.931c0-.128-.008-.257-.012-.385l0-.987,0-4.846c0-.07.01-.139.01-.209q0-4.551,0-9.1c0-.081-.009-.163-.015-.244.006-.128.017-.256.017-.385q0-1.648,0-3.3c0-.742.128-.868.883-.868H735.08c.764,0,.871.107.874.866q0,1.842.014,3.684c-.005.128-.014.256-.014.384q0,3.885,0,7.771c0,.513.006,1.026.009,1.539,0,.55-.01,1.1-.009,1.648,0,1.134.008,2.268.012,3.4l-.005.506c0,.058-.007.117-.007.175q0,4.207,0,8.416c0,.081.009.163.014.244l-.008,4.084c0,1.311-.007,2.622-.006,3.933,0,.982.007,1.965.01,2.948Zm-8.705-21.822c.1-.1.209-.188.3-.293a7.574,7.574,0,0,0,1.4-8.418,7.82,7.82,0,0,0-10.365-3.977,7.767,7.767,0,0,0-4.265,9.227,7.406,7.406,0,0,0,2.311,3.687,5.54,5.54,0,0,0,1.64,1.158,7.956,7.956,0,0,0,2.653.79,7.817,7.817,0,0,0,2.156-.038,7.589,7.589,0,0,0,2.672-.961A5.779,5.779,0,0,0,727.258,1047.824Zm2.489,17.879v-4.815H713.792v4.815Zm-8.73-9.233.067.057a4.2,4.2,0,0,0,.459-.3.391.391,0,0,1,.586-.007,3.562,3.562,0,0,0,.486.306l.062-.046c-.053-.2-.091-.4-.163-.591a.4.4,0,0,1,.146-.519c.171-.133.33-.282.545-.469-.235-.02-.4-.045-.557-.047-.533-.008-.42.028-.6-.445q-.089-.234-.179-.468a1.489,1.489,0,0,0-.258.556.441.441,0,0,1-.487.389c-.181,0-.363,0-.544,0l-.033.082c.135.117.268.238.407.351.305.248.31.261.194.652C721.1,1056.138,721.062,1056.305,721.017,1056.47Zm-5.873.057.083-.046a4.209,4.209,0,0,0-.162-.627.358.358,0,0,1,.153-.476c.171-.136.332-.284.559-.478a6.363,6.363,0,0,0-.7-.04.354.354,0,0,1-.422-.307,6.035,6.035,0,0,0-.234-.625,2.329,2.329,0,0,0-.3.674.3.3,0,0,1-.313.263c-.226.015-.452.032-.694.05.025.061.029.1.051.12.1.092.214.18.323.267.319.251.318.25.215.643-.047.183-.087.368-.13.552a1.8,1.8,0,0,0,.577-.293.352.352,0,0,1,.5,0A5.245,5.245,0,0,0,715.144,1056.527Zm13.32-.052.068.055c.172-.114.351-.217.514-.343a.343.343,0,0,1,.473,0c.173.129.363.235.546.352l.058-.044a5.779,5.779,0,0,0-.167-.586.428.428,0,0,1,.178-.568c.164-.12.311-.264.526-.448-.294-.017-.5-.043-.71-.036s-.348-.05-.4-.284a6.857,6.857,0,0,0-.263-.719,5.583,5.583,0,0,0-.256.684.407.407,0,0,1-.445.346l-.6.021a2.692,2.692,0,0,0,.523.506.318.318,0,0,1,.126.4C728.565,1056.026,728.52,1056.252,728.464,1056.475Zm-11.593-1.587-.047.089c.148.121.291.249.445.361a.442.442,0,0,1,.184.573,5.683,5.683,0,0,0-.154.58l.063.042c.173-.111.357-.21.518-.336a.331.331,0,0,1,.468-.011c.168.129.356.231.536.345l.063-.054c-.056-.222-.1-.447-.173-.663a.31.31,0,0,1,.119-.393c.19-.148.362-.317.587-.518-.24-.019-.413-.042-.586-.046-.4-.011-.395.058-.537-.381-.057-.176-.143-.343-.216-.514a1.6,1.6,0,0,0-.252.544.446.446,0,0,1-.495.383C717.219,1054.886,717.045,1054.888,716.871,1054.888Zm9.468,1.646.057-.053a5.6,5.6,0,0,0-.164-.594.406.406,0,0,1,.176-.537c.166-.121.314-.266.525-.447-.274-.02-.469-.041-.664-.046-.346-.01-.345-.006-.463-.342-.064-.182-.135-.361-.2-.542l-.075-.008c-.081.21-.175.416-.239.632a.334.334,0,0,1-.344.276c-.214.007-.429.026-.735.045.209.181.345.319.5.43a.389.389,0,0,1,.18.529,3.766,3.766,0,0,0-.141.615l.067.04c.172-.114.353-.216.514-.344a.334.334,0,0,1,.469.005C725.968,1056.321,726.159,1056.421,726.339,1056.534Z" fill="#5aa443"/>
      <path id="Path_28" data-name="Path 28" d="M735.963,1042.956c0-.513-.009-1.026-.009-1.539q0-3.885,0-7.771c0-.128.009-.256.014-.384.412.115.827.222,1.236.347q2.561.786,5.119,1.581c.964.3,1.923.613,2.887.913,1.584.492,3.17.975,4.753,1.469,1.042.324,2.079.662,3.119.992.2.063.4.114.6.18a.649.649,0,0,1,.468.919q-.465,1.477-.927,2.956a2.936,2.936,0,0,0-.064.339.547.547,0,0,0-.069.112c-.249.785-.494,1.571-.742,2.355-.308.973-.625,1.943-.928,2.918-.488,1.571-.964,3.147-1.453,4.718-.234.752-.493,1.5-.729,2.247-.4,1.282-.794,2.568-1.194,3.852-.3.974-.615,1.944-.917,2.918q-.759,2.439-1.508,4.882-.313,1.013-.629,2.026c-.134.431-.261.864-.406,1.291a.611.611,0,0,1-.847.426c-.209-.067-.415-.144-.625-.207-.721-.218-1.446-.423-2.165-.648-1.361-.425-2.719-.862-4.08-1.289-.3-.093-.6-.165-.9-.247,0-.983-.01-1.966-.01-2.948,0-1.311,0-2.622.006-3.933a1.766,1.766,0,0,1,.273.035c.357.1.712.212,1.067.324q2.025.639,4.051,1.281a2.16,2.16,0,0,0,.243.046l1.158-3.688c-.818-.252-1.605-.492-2.391-.737q-2.045-.639-4.088-1.281a3.053,3.053,0,0,0-.3-.064c-.005-.081-.014-.163-.014-.244q0-4.208,0-8.416c0-.058.005-.117.007-.175a11.193,11.193,0,0,0,1.013,1.136,5.506,5.506,0,0,0,3.156,1.245,3.876,3.876,0,0,0,1.379-.164,1.539,1.539,0,0,0,.907-.4,1.98,1.98,0,0,0,.329-.1,4.528,4.528,0,0,0,1.575-1.349,5.1,5.1,0,0,0-1.238-7.363,4.811,4.811,0,0,0-2.051-.792,5.1,5.1,0,0,0-3.019.5,4.947,4.947,0,0,0-1.757,1.455A2.185,2.185,0,0,1,735.963,1042.956Zm1.823,10.4a.544.544,0,0,0-.491.451.5.5,0,0,0,.469.464.453.453,0,0,0,.5-.416A.534.534,0,0,0,737.786,1053.352Zm2.735,1.156a.435.435,0,0,0-.422-.452.562.562,0,0,0-.49.418.492.492,0,0,0,.474.494A.408.408,0,0,0,740.521,1054.508Zm1.856.316a.406.406,0,0,0-.454.444.551.551,0,0,0,.442.465.537.537,0,0,0,.471-.47A.408.408,0,0,0,742.377,1054.824Z" fill="#f2f5fa"/>
      <path id="Path_29" data-name="Path 29" d="M707.577,1048.65c0,.128.012.257.012.385q0,3.966,0,7.931c0,.128-.01.256-.015.384a.522.522,0,0,0-.1.008q-1.881.579-3.76,1.161c-.589.181-1.18.353-1.766.538-.35.111-.694.24-1.057.367l1.125,3.627a2.134,2.134,0,0,0,.375-.048c1.065-.328,2.128-.667,3.194-.993.665-.2,1.335-.389,2-.583l0,6.884a.576.576,0,0,0-.139.01q-1.479.453-2.957.912c-1.218.381-2.433.77-3.65,1.151-.332.1-.665.2-1,.288a.6.6,0,0,1-.819-.461q-.644-2.111-1.3-4.218c-.235-.752-.493-1.5-.727-2.25-.337-1.085-.658-2.174-.993-3.26-.245-.8-.5-1.59-.75-2.387-.474-1.528-.942-3.057-1.416-4.585-.183-.587-.379-1.17-.56-1.758-.438-1.429-.87-2.861-1.308-4.291q-.34-1.113-.692-2.225c-.248-.784-.5-1.567-.754-2.351-.058-.21-.11-.423-.175-.631q-.4-1.28-.8-2.556c-.179-.562-.037-.865.526-1.041,1.516-.474,3.036-.935,4.553-1.4.831-.257,1.658-.526,2.489-.783,1.44-.444,2.883-.879,4.323-1.324.831-.256,1.658-.524,2.489-.783q1.743-.542,3.488-1.077a.974.974,0,0,1,.172-.022c.006.081.015.163.015.244q0,4.549,0,9.1c0,.07-.007.139-.01.209a.5.5,0,0,1-.139-.082c-.136-.159-.253-.334-.4-.485a4.621,4.621,0,0,0-1.55-1.1,4.688,4.688,0,0,0-1.426-.42,5.643,5.643,0,0,0-2.176.167,5.086,5.086,0,0,0-3.575,5.664,5.076,5.076,0,0,0,2.358,3.542,4.451,4.451,0,0,0,.655.3,2.108,2.108,0,0,0,.269.144,5,5,0,0,0,2.179.291,5.114,5.114,0,0,0,1.77-.471A5.335,5.335,0,0,0,707.577,1048.65Zm-1.714,4.7a.409.409,0,0,0-.462.44.458.458,0,1,0,.915.019A.432.432,0,0,0,705.863,1053.349ZM704,1054.513a.409.409,0,0,0-.442-.46.458.458,0,1,0-.016.915A.433.433,0,0,0,704,1054.513Zm-2.744,1.159a.466.466,0,0,0,.478-.417.515.515,0,0,0-.49-.5.537.537,0,0,0-.473.475A.451.451,0,0,0,701.257,1055.672Z" fill="#f2f5fa"/>
      <path id="Path_30" data-name="Path 30" d="M690.512,1042.886c.252.784.506,1.567.754,2.351q.351,1.111.692,2.225c.438,1.43.87,2.862,1.308,4.291.181.588.377,1.171.56,1.758.474,1.528.942,3.057,1.416,4.585.247.8.505,1.59.75,2.387.335,1.086.656,2.175.993,3.26.234.752.492,1.5.727,2.25q.657,2.107,1.3,4.218a.6.6,0,0,0,.819.461c.336-.086.669-.184,1-.288,1.217-.381,2.432-.77,3.65-1.151q1.476-.462,2.957-.912a.576.576,0,0,1,.139-.01l0,1.264a1.075,1.075,0,0,0-.257.1c-.723.525-1.441,1.058-2.163,1.585-.759.554-1.522,1.1-2.282,1.656-.788.573-1.58,1.142-2.36,1.727-.551.413-.69.332-1.1-.148-.3-.352-.55-.748-.824-1.122q-1.3-1.785-2.612-3.568c-.7-.966-1.4-1.941-2.1-2.906-.745-1.022-1.5-2.036-2.249-3.057-.589-.806-1.166-1.619-1.755-2.425-1.054-1.444-2.115-2.882-3.168-4.326-.779-1.069-1.546-2.147-2.325-3.216-.67-.919-1.35-1.831-2.025-2.746-.254-.346-.511-.691-.759-1.041a.616.616,0,0,1,.125-.9c.634-.47,1.277-.927,1.915-1.392.994-.724,1.985-1.452,2.981-2.174.733-.532,1.472-1.054,2.206-1.583.452-.327.9-.663,1.349-.987A2.458,2.458,0,0,1,690.512,1042.886Z" fill="#fff"/>
      <path id="Path_31" data-name="Path 31" d="M735.964,1068.312c.3.082.6.154.9.247,1.361.427,2.719.864,4.08,1.289.719.225,1.444.43,2.165.648.21.063.416.14.625.207a.611.611,0,0,0,.847-.426c.145-.427.272-.86.406-1.291q.315-1.012.629-2.026.753-2.442,1.508-4.882c.3-.974.614-1.944.917-2.918.4-1.284.792-2.57,1.194-3.852.236-.751.495-1.495.729-2.247.489-1.571.965-3.147,1.453-4.718.3-.975.62-1.945.928-2.918.248-.784.493-1.57.742-2.355a.547.547,0,0,1,.069-.112q1.746,1.269,3.491,2.538c.967.7,1.938,1.4,2.906,2.1q1.086.786,2.165,1.579a.626.626,0,0,1,.137.92c-1.174,1.6-2.355,3.2-3.524,4.8-.965,1.322-1.913,2.655-2.878,3.977-.93,1.275-1.876,2.538-2.806,3.813-.82,1.125-1.626,2.261-2.444,3.388-.606.836-1.223,1.665-1.833,2.5q-.966,1.32-1.929,2.644-1.2,1.645-2.4,3.292a1.546,1.546,0,0,1-.2.2c-.271.257-.4.274-.7.06q-.984-.692-1.956-1.4c-.836-.606-1.667-1.219-2.5-1.829s-1.648-1.206-2.476-1.8a.95.95,0,0,0-.251-.09Z" fill="#fff"/>
      <rect id="Rectangle_26" data-name="Rectangle 26" width="15.955" height="4.814" rx="0.418" transform="translate(713.792 1060.888)" fill="#fff"/>
      <path id="Path_32" data-name="Path 32" d="M735.963,1042.956a2.185,2.185,0,0,0,.292-.274,4.947,4.947,0,0,1,1.757-1.455,5.1,5.1,0,0,1,3.019-.5,4.811,4.811,0,0,1,2.051.792,5.1,5.1,0,0,1,1.238,7.363,4.528,4.528,0,0,1-1.575,1.349,1.98,1.98,0,0,1-.329.1c-.024-.277-.028-.557-.077-.829a3.375,3.375,0,0,0-.854-1.756.416.416,0,0,0-.431-.121,2.584,2.584,0,0,1-1.5-.16,2.872,2.872,0,0,1-1.031-.9,3.332,3.332,0,0,0-1.424.425,3.936,3.936,0,0,0-1.135,1.016c0-1.134-.01-2.268-.012-3.4C735.953,1044.055,735.96,1043.506,735.963,1042.956Zm4.577,4.076a1.651,1.651,0,1,0,0-3.3,1.658,1.658,0,0,0-1.688,1.678A1.611,1.611,0,0,0,740.54,1047.032Z" fill="#b9cad9"/>
      <path id="Path_33" data-name="Path 33" d="M701.33,1050.4a4.451,4.451,0,0,1-.655-.3,5.076,5.076,0,0,1-2.358-3.542,5.086,5.086,0,0,1,3.575-5.664,5.643,5.643,0,0,1,2.176-.167,4.688,4.688,0,0,1,1.426.42,4.621,4.621,0,0,1,1.55,1.1c.143.151.26.326.4.485a.5.5,0,0,0,.139.082l0,4.846c-.047-.034-.095-.066-.139-.1a3.872,3.872,0,0,0-1.85-.98.483.483,0,0,0-.487.148,4.6,4.6,0,0,1-.627.55,2.254,2.254,0,0,1-1.774.262.4.4,0,0,0-.436.133c-.079.1-.17.191-.243.3A3.894,3.894,0,0,0,701.33,1050.4Zm3.583-5.121a1.591,1.591,0,0,0-1.654-1.679,1.673,1.673,0,1,0,.08,3.346A1.629,1.629,0,0,0,704.913,1045.281Z" fill="#b9cad9"/>
      <path id="Path_34" data-name="Path 34" d="M716.636,1048.05a6.145,6.145,0,0,1,.632-1.579,5.534,5.534,0,0,1,2.234-2.1.346.346,0,0,1,.41.066,3.466,3.466,0,0,0,2.066.629,3.392,3.392,0,0,0,2-.611c.075-.053.156-.1.252-.157a5.291,5.291,0,0,1,2.737,2.792c.1.243.193.492.289.738a5.779,5.779,0,0,1-1.5,1.175,7.589,7.589,0,0,1-2.672.961,7.817,7.817,0,0,1-2.156.038,7.956,7.956,0,0,1-2.653-.79A5.54,5.54,0,0,1,716.636,1048.05Z" fill="#b9cad9"/>
      <path id="Path_35" data-name="Path 35" d="M735.968,1057.347l.031-.022c1.454.454,2.907.913,4.362,1.367.619.193,1.24.383,1.875.579a.536.536,0,0,1,.356.669l-1,3.177a2.16,2.16,0,0,1-.243-.046q-2.027-.639-4.051-1.281c-.355-.112-.71-.221-1.067-.324a1.766,1.766,0,0,0-.273-.035Z" fill="#adbdcd"/>
      <path id="Path_36" data-name="Path 36" d="M707.582,1061.427c-.668.194-1.338.38-2,.583-1.066.326-2.129.665-3.194.993a2.134,2.134,0,0,1-.375.048l-1.125-3.627c.363-.127.707-.256,1.057-.367.586-.185,1.177-.357,1.766-.538q1.879-.579,3.76-1.161a.522.522,0,0,1,.1-.008Z" fill="#adbdcd"/>
      <path id="Path_37" data-name="Path 37" d="M735.966,1048.006a3.936,3.936,0,0,1,1.135-1.016,3.332,3.332,0,0,1,1.424-.425,2.872,2.872,0,0,0,1.031.9,2.584,2.584,0,0,0,1.5.16.416.416,0,0,1,.431.121,3.375,3.375,0,0,1,.854,1.756c.049.272.053.552.077.829a1.539,1.539,0,0,1-.907.4,3.876,3.876,0,0,1-1.379.164,5.506,5.506,0,0,1-3.156-1.245,11.193,11.193,0,0,1-1.013-1.136Z" fill="#adbdcd"/>
      <path id="Path_38" data-name="Path 38" d="M701.33,1050.4a3.894,3.894,0,0,1,.7-2.434c.073-.1.164-.2.243-.3a.4.4,0,0,1,.436-.133,2.254,2.254,0,0,0,1.774-.262,4.6,4.6,0,0,0,.627-.55.483.483,0,0,1,.487-.148,3.872,3.872,0,0,1,1.85.98c.044.037.092.069.139.1l0,.987a5.335,5.335,0,0,1-2.029,1.716,5.114,5.114,0,0,1-1.77.471,5,5,0,0,1-2.179-.291A2.108,2.108,0,0,1,701.33,1050.4Z" fill="#adbdcd"/>
      <path id="Path_39" data-name="Path 39" d="M721.017,1056.47c.045-.165.086-.332.134-.5.116-.391.111-.4-.194-.652-.139-.113-.272-.234-.407-.351l.033-.082c.181,0,.363,0,.544,0a.441.441,0,0,0,.487-.389,1.489,1.489,0,0,1,.258-.556q.09.234.179.468c.177.473.064.437.6.445.161,0,.322.027.557.047-.215.187-.374.336-.545.469a.4.4,0,0,0-.146.519c.072.19.11.394.163.591l-.062.046a3.562,3.562,0,0,1-.486-.306.391.391,0,0,0-.586.007,4.2,4.2,0,0,1-.459.3Z" fill="#eceded"/>
      <path id="Path_40" data-name="Path 40" d="M715.144,1056.527a5.245,5.245,0,0,1-.487-.326.352.352,0,0,0-.5,0,1.8,1.8,0,0,1-.577.293c.043-.184.083-.369.13-.552.1-.393.1-.392-.215-.643-.109-.087-.218-.175-.323-.267-.022-.019-.026-.059-.051-.12.242-.018.468-.035.694-.05a.3.3,0,0,0,.313-.263,2.329,2.329,0,0,1,.3-.674,6.035,6.035,0,0,1,.234.625.354.354,0,0,0,.422.307,6.363,6.363,0,0,1,.7.04c-.227.194-.388.342-.559.478a.358.358,0,0,0-.153.476,4.209,4.209,0,0,1,.162.627Z" fill="#eceded"/>
      <path id="Path_41" data-name="Path 41" d="M728.464,1056.475c.056-.223.1-.449.171-.667a.318.318,0,0,0-.126-.4,2.692,2.692,0,0,1-.523-.506l.6-.021a.407.407,0,0,0,.445-.346,5.583,5.583,0,0,1,.256-.684,6.857,6.857,0,0,1,.263.719c.055.234.186.291.4.284s.416.019.71.036c-.215.184-.362.328-.526.448a.428.428,0,0,0-.178.568,5.779,5.779,0,0,1,.167.586l-.058.044c-.183-.117-.373-.223-.546-.352a.343.343,0,0,0-.473,0c-.163.126-.342.229-.514.343Z" fill="#ecedee"/>
      <path id="Path_42" data-name="Path 42" d="M716.871,1054.888c.174,0,.348,0,.523,0a.446.446,0,0,0,.495-.383,1.6,1.6,0,0,1,.252-.544c.073.171.159.338.216.514.142.439.136.37.537.381.173,0,.346.027.586.046-.225.2-.4.37-.587.518a.31.31,0,0,0-.119.393c.073.216.117.441.173.663l-.063.054c-.18-.114-.368-.216-.536-.345a.331.331,0,0,0-.468.011c-.161.126-.345.225-.518.336l-.063-.042a5.683,5.683,0,0,1,.154-.58.442.442,0,0,0-.184-.573c-.154-.112-.3-.24-.445-.361Z" fill="#eceded"/>
      <path id="Path_43" data-name="Path 43" d="M726.339,1056.534c-.18-.113-.371-.213-.539-.341a.334.334,0,0,0-.469-.005c-.161.128-.342.23-.514.344l-.067-.04a3.766,3.766,0,0,1,.141-.615.389.389,0,0,0-.18-.529c-.156-.111-.292-.249-.5-.43.306-.019.521-.038.735-.045a.334.334,0,0,0,.344-.276c.064-.216.158-.422.239-.632l.075.008c.068.181.139.36.2.542.118.336.117.332.463.342.2.005.39.026.664.046-.211.181-.359.326-.525.447a.406.406,0,0,0-.176.537,5.6,5.6,0,0,1,.164.594Z" fill="#eceded"/>
      <path id="Path_44" data-name="Path 44" d="M737.786,1053.352a.534.534,0,0,1,.481.5.453.453,0,0,1-.5.416.5.5,0,0,1-.469-.464A.544.544,0,0,1,737.786,1053.352Z" fill="#adbdcd"/>
      <path id="Path_45" data-name="Path 45" d="M740.521,1054.508a.408.408,0,0,1-.438.46.492.492,0,0,1-.474-.494.562.562,0,0,1,.49-.418A.435.435,0,0,1,740.521,1054.508Z" fill="#adbdcd"/>
      <path id="Path_46" data-name="Path 46" d="M742.377,1054.824a.408.408,0,0,1,.459.439.537.537,0,0,1-.471.47.551.551,0,0,1-.442-.465A.406.406,0,0,1,742.377,1054.824Z" fill="#adbdcd"/>
      <path id="Path_47" data-name="Path 47" d="M705.863,1053.349a.432.432,0,0,1,.453.459.458.458,0,1,1-.915-.019A.409.409,0,0,1,705.863,1053.349Z" fill="#adbdcd"/>
      <path id="Path_48" data-name="Path 48" d="M704,1054.513a.433.433,0,0,1-.458.455.458.458,0,1,1,.016-.915A.409.409,0,0,1,704,1054.513Z" fill="#adbdcd"/>
      <path id="Path_49" data-name="Path 49" d="M701.257,1055.672a.451.451,0,0,1-.485-.44.537.537,0,0,1,.473-.475.515.515,0,0,1,.49.5A.466.466,0,0,1,701.257,1055.672Z" fill="#adbdcd"/>
      <path id="Path_50" data-name="Path 50" d="M721.961,1044.015a2.539,2.539,0,1,1,.014-5.077,2.539,2.539,0,1,1-.014,5.077Z" fill="#b9cad9"/>
      <path id="Path_51" data-name="Path 51" d="M740.54,1047.032a1.611,1.611,0,0,1-1.691-1.623,1.658,1.658,0,0,1,1.688-1.678,1.651,1.651,0,1,1,0,3.3Z" fill="#adbdcd"/>
      <path id="Path_52" data-name="Path 52" d="M704.913,1045.281a1.646,1.646,0,1,1-3.292-.018,1.654,1.654,0,0,1,1.638-1.661A1.591,1.591,0,0,1,704.913,1045.281Z" fill="#adbdcd"/>
    </g>
  </g>
</svg>
