<svg xmlns="http://www.w3.org/2000/svg" width="18" height="18.25" viewBox="0 0 18 18.25">
  <g id="Group_111" data-name="Group 111" transform="translate(-410 -778.875)">
    <path id="Path_62" data-name="Path 62" d="M427.117,778.875h-1.766a.885.885,0,0,0-.883.883v16.484a.885.885,0,0,0,.883.883h1.766a.885.885,0,0,0,.883-.883V779.758A.885.885,0,0,0,427.117,778.875Z" fill="#485e76"/>
    <path id="Path_63" data-name="Path 63" d="M410.912,790.164h3.68a.917.917,0,0,1,.912.912v1.575a.92.92,0,0,0,1.487.721l5.887-4.577a.928.928,0,0,0,0-1.457l-5.887-4.71a.921.921,0,0,0-1.487.736v1.575a.917.917,0,0,1-.912.912h-3.68a.917.917,0,0,0-.912.913v2.472A.9.9,0,0,0,410.912,790.164Z" fill="#485e76"/>
  </g>
</svg>
