<svg xmlns="http://www.w3.org/2000/svg" width="19" height="18.208" viewBox="0 0 19 18.208">
  <path id="Path_61" data-name="Path 61" d="M427.95,723.594a1.007,1.007,0,0,0-.868-.694l-5.485-.5-2.167-5.075a1.011,1.011,0,0,0-1.859,0L415.4,722.4l-5.486.5a1.012,1.012,0,0,0-.574,1.767l4.146,3.635-1.222,5.385a1.009,1.009,0,0,0,1.5,1.091l4.729-2.828,4.729,2.828a1.01,1.01,0,0,0,1.5-1.091L423.51,728.3l4.146-3.635A1.011,1.011,0,0,0,427.95,723.594Z" transform="translate(-409 -716.714)" fill="#485e76"/>
</svg>
