<svg xmlns="http://www.w3.org/2000/svg" width="17.704" height="14" viewBox="0 0 17.704 14">
  <g id="Group_110" data-name="Group 110" transform="translate(-409.148 -661)">
    <g id="Group_109" data-name="Group 109">
      <g id="Group_106" data-name="Group 106">
        <g id="Group_105" data-name="Group 105">
          <path id="Path_59" data-name="Path 59" d="M423.554,664.438h-6.387l-1.271-1.51a.216.216,0,0,0-.173-.078H410.57a1.432,1.432,0,0,0-1.422,1.432v9.288a1.432,1.432,0,0,0,1.43,1.43h12.976a1.432,1.432,0,0,0,1.43-1.43v-7.7A1.432,1.432,0,0,0,423.554,664.438Z" fill="#485e76"/>
        </g>
      </g>
      <g id="Group_108" data-name="Group 108">
        <g id="Group_107" data-name="Group 107">
          <path id="Path_60" data-name="Path 60" d="M425.43,662.588h-6.389l-1.27-1.51A.219.219,0,0,0,417.6,661h-5.151a1.431,1.431,0,0,0-1.415,1.236h4.7a.827.827,0,0,1,.638.3l1.085,1.289h6.1a2.049,2.049,0,0,1,2.045,2.045v7.269a1.43,1.43,0,0,0,1.253-1.418v-7.7A1.432,1.432,0,0,0,425.43,662.588Z" fill="#485e76"/>
        </g>
      </g>
    </g>
  </g>
</svg>
