<svg xmlns="http://www.w3.org/2000/svg" width="18.809" height="18.854" viewBox="0 0 18.809 18.854">
  <g id="Group_90" data-name="Group 90" transform="translate(-708.642 -846.754)">
    <path id="Path_57" data-name="Path 57" d="M713.825,854.7a5.247,5.247,0,0,1,1.634-3.845c.826-.835,1.65-1.671,2.486-2.5a5.583,5.583,0,0,1,7.916,7.872c-.437.454-.874.911-1.339,1.336-.515.472-.985.312-1.12-.371-.114-.573-.183-1.155-.295-1.728a1.212,1.212,0,0,1,.481-1.132,2.63,2.63,0,1,0-3.569-3.861c-.877.813-1.729,1.655-2.543,2.53a2.664,2.664,0,0,0,.172,3.8c.653.622.675.93.116,1.662-.093.12-.178.247-.278.362-.734.848-1.1.86-1.913.064A5.294,5.294,0,0,1,713.825,854.7Z" fill="#74b95c"/>
    <path id="Path_58" data-name="Path 58" d="M722.206,857.391a5.376,5.376,0,0,1-1.691,4.181,28.949,28.949,0,0,1-3.5,3.2c-3.082,2.132-7.713-.052-8.294-3.757a5.689,5.689,0,0,1,1.749-5.183c.337-.339.666-.688,1.018-1.011.546-.5,1.021-.345,1.157.373.1.529.166,1.065.271,1.594a1.428,1.428,0,0,1-.568,1.355,2.6,2.6,0,0,0,1.118,4.368,2.541,2.541,0,0,0,2.631-.677c.714-.759,1.453-1.5,2.214-2.211a2.638,2.638,0,0,0-.007-4.136.968.968,0,0,1-.043-1.571c1.17-1.319,1.408-1.348,2.579-.043A4.913,4.913,0,0,1,722.206,857.391Z" fill="#74b95c"/>
  </g>
</svg>
