<svg xmlns="http://www.w3.org/2000/svg" width="17.98" height="16.107" viewBox="0 0 17.98 16.107">
  <path id="Path_85" data-name="Path 85" d="M1288.422,634.959a1,1,0,0,1-.657-.247c-.686-.6-1.347-1.163-1.93-1.66l0,0a35.936,35.936,0,0,1-4.216-3.957,6.319,6.319,0,0,1-1.684-4.137,5.3,5.3,0,0,1,1.347-3.624,4.564,4.564,0,0,1,3.4-1.479,4.272,4.272,0,0,1,2.668.921,1.08,1.08,0,1,0,2.158,0,4.269,4.269,0,0,1,2.667-.921,4.564,4.564,0,0,1,3.4,1.479,5.308,5.308,0,0,1,1.347,3.624,6.319,6.319,0,0,1-1.684,4.137,35.936,35.936,0,0,1-4.216,3.957c-.584.5-1.246,1.062-1.934,1.664A1,1,0,0,1,1288.422,634.959Z" transform="translate(-1279.432 -619.352)" fill="none" stroke="#8ca2bb" stroke-miterlimit="10" stroke-width="1"/>
</svg>
