<svg xmlns="http://www.w3.org/2000/svg" width="19.413" height="14.56" viewBox="0 0 19.413 14.56">
  <g id="Group_104" data-name="Group 104" transform="translate(-1612.49 -251.206)">
    <g id="Group_101" data-name="Group 101">
      <g id="Group_100" data-name="Group 100">
        <path id="Path_45" data-name="Path 45" d="M1622.2,252.824c-4.984,0-9.424,5.18-9.611,5.4a.4.4,0,0,0,0,.522,20.229,20.229,0,0,0,4.1,3.537l2.535-2.535a3.234,3.234,0,0,1,4.241-4.241l2.084-2.085A9.882,9.882,0,0,0,1622.2,252.824Z" fill="#606060"/>
      </g>
    </g>
    <g id="Group_103" data-name="Group 103">
      <g id="Group_102" data-name="Group 102">
        <path id="Path_46" data-name="Path 46" d="M1631.832,258.256a14.833,14.833,0,0,0-4.708-4.125l2.235-2.235a.4.4,0,0,0-.572-.572l-13.751,13.751a.4.4,0,0,0,0,.572.4.4,0,0,0,.285.119.406.406,0,0,0,.287-.118l2.536-2.536a9.311,9.311,0,0,0,4.053,1.036c4.984,0,9.424-5.18,9.611-5.4A.405.405,0,0,0,1631.832,258.256Zm-9.635,3.466a3.211,3.211,0,0,1-1.974-.69l4.52-4.52a3.22,3.22,0,0,1-2.546,5.21Z" fill="#606060"/>
      </g>
    </g>
  </g>
</svg>
