<svg xmlns="http://www.w3.org/2000/svg" width="8.905" height="12.951" viewBox="0 0 8.905 12.951">
  <g id="Group_101" data-name="Group 101" transform="translate(-1081.618 -615.966)">
    <g id="Group_100" data-name="Group 100">
      <g id="Group_99" data-name="Group 99">
        <g id="Group_98" data-name="Group 98">
          <path id="Path_94" data-name="Path 94" d="M1089.905,618.184a4.395,4.395,0,0,0-3.735-2.217h-.2a4.394,4.394,0,0,0-3.734,2.217,4.506,4.506,0,0,0-.059,4.455l3.211,5.878.005.007a.78.78,0,0,0,1.354,0l0-.007,3.212-5.878a4.511,4.511,0,0,0-.059-4.455Zm-3.834,3.65a1.821,1.821,0,1,1,1.821-1.821A1.823,1.823,0,0,1,1086.071,621.834Z" fill="#8ca2bb"/>
        </g>
      </g>
    </g>
  </g>
</svg>
