<svg xmlns="http://www.w3.org/2000/svg" width="19.206" height="18.777" viewBox="0 0 19.206 18.777">
  <g id="Group_125" data-name="Group 125" transform="translate(-1253.784 -188)">
    <g id="Group_124" data-name="Group 124">
      <path id="Path_65" data-name="Path 65" d="M1267.238,192.177v-3.238a.941.941,0,0,0-.939-.939h-11.576a.942.942,0,0,0-.939.939V202.2a.956.956,0,0,0,.5.829l7.133,3.692a.473.473,0,0,0,.689-.422v-3.6h4.192a.941.941,0,0,0,.939-.939v-5.131h-1.877v3.724a.462.462,0,0,1-.47.469h-2.769v-7.963a.956.956,0,0,0-.5-.829l-4.208-2.159h7.477a.462.462,0,0,1,.47.47v1.846h1.877Z" fill="#606060"/>
      <path id="Path_66" data-name="Path 66" d="M1269.647,190.644l3.05,3.05a.936.936,0,0,1,0,1.361l-3.05,3.051a.955.955,0,0,1-1.377.015,1,1,0,0,1,.032-1.376l1.376-1.361h-5.334a.926.926,0,0,1-.7-.313,1.062,1.062,0,0,1,.234-1.611,1,1,0,0,1,.47-.126h5.334s-1.361-1.361-1.376-1.361a.946.946,0,1,1,1.345-1.329Z" fill="#606060"/>
    </g>
  </g>
</svg>
