<svg xmlns="http://www.w3.org/2000/svg" width="8.345" height="7.408" viewBox="0 0 8.345 7.408">
  <g id="Group_117" data-name="Group 117" transform="translate(-687.12 -529.837)">
    <g id="Group_116" data-name="Group 116">
      <path id="Path_73" data-name="Path 73" d="M692.336,531.5a.359.359,0,0,1-.348-.37v-.556H690.6v.556a.348.348,0,1,1-.7,0v-.556a.72.72,0,0,1,.7-.74h1.391a.72.72,0,0,1,.7.74v.556A.359.359,0,0,1,692.336,531.5Z" fill="#9da9bb"/>
      <path id="Path_74" data-name="Path 74" d="M691.54,534.793a.679.679,0,0,1-.247.044.71.71,0,0,1-.268-.052L687.12,533.4v2.826a.989.989,0,0,0,.957,1.019h6.432a.988.988,0,0,0,.956-1.019V533.4Z" fill="#9da9bb"/>
      <path id="Path_75" data-name="Path 75" d="M695.465,531.966v.849l-4.089,1.452a.221.221,0,0,1-.083.015.227.227,0,0,1-.084-.015l-4.089-1.452v-.849a.988.988,0,0,1,.957-1.018h6.432A.987.987,0,0,1,695.465,531.966Z" fill="#9da9bb"/>
    </g>
  </g>
</svg>
