<svg xmlns="http://www.w3.org/2000/svg" width="14.763" height="9.441" viewBox="0 0 14.763 9.441">
  <g id="Group_347" data-name="Group 347" transform="translate(-1349.62 -233)">
    <path id="Path_201" data-name="Path 201" d="M1351.859,241.015v.992a.434.434,0,0,0,.435.434h9.414a.434.434,0,0,0,.435-.434v-.992Z" fill="#314963"/>
    <path id="Path_202" data-name="Path 202" d="M1364.383,235.489a1.405,1.405,0,1,0-2.426.963,2.3,2.3,0,0,1-3.97-1.048,1.405,1.405,0,1,0-1.972,0,2.3,2.3,0,0,1-3.969,1.048,1.4,1.4,0,1,0-1.323.409,11.453,11.453,0,0,0,.831,3.285h10.894a11.453,11.453,0,0,0,.831-3.285A1.408,1.408,0,0,0,1364.383,235.489Z" fill="#314963"/>
  </g>
</svg>
