<svg xmlns="http://www.w3.org/2000/svg" width="29.131" height="29.131" viewBox="0 0 29.131 29.131">
  <path id="Path_20" data-name="Path 20" d="M1384.919,486.926l-2.239-.486a12.2,12.2,0,0,0-.721-1.738l1.24-1.928a.871.871,0,0,0-.117-1.086l-3.488-3.488a.87.87,0,0,0-1.086-.117l-1.928,1.24a12.193,12.193,0,0,0-1.738-.721l-.486-2.239a.871.871,0,0,0-.851-.685h-4.933a.87.87,0,0,0-.85.685l-.487,2.239a12.2,12.2,0,0,0-1.738.721l-1.928-1.24a.87.87,0,0,0-1.086.117l-3.488,3.488a.871.871,0,0,0-.117,1.086l1.24,1.928a12.2,12.2,0,0,0-.721,1.738l-2.239.486a.87.87,0,0,0-.685.851v4.933a.87.87,0,0,0,.685.85l2.239.487a12.186,12.186,0,0,0,.721,1.737l-1.24,1.929a.872.872,0,0,0,.117,1.086l3.488,3.488a.87.87,0,0,0,1.086.116l1.928-1.239a12.08,12.08,0,0,0,1.738.72l.487,2.239a.87.87,0,0,0,.85.686h4.933a.871.871,0,0,0,.851-.686l.486-2.239a12.073,12.073,0,0,0,1.738-.72l1.928,1.239a.87.87,0,0,0,1.086-.116l3.488-3.488a.872.872,0,0,0,.117-1.086l-1.24-1.929a12.186,12.186,0,0,0,.721-1.737l2.239-.487a.87.87,0,0,0,.685-.85v-4.933A.87.87,0,0,0,1384.919,486.926Zm-8.658,3.317a5.222,5.222,0,1,1-5.222-5.223A5.229,5.229,0,0,1,1376.261,490.243Z" transform="translate(-1356.473 -475.678)" fill="#0bb783"/>
</svg>
