<svg xmlns="http://www.w3.org/2000/svg" width="17.9" height="12.796" viewBox="0 0 17.9 12.796">
  <g id="Group_101" data-name="Group 101" transform="translate(-408.1 -482.652)">
    <g id="Group_100" data-name="Group 100">
      <g id="Group_91" data-name="Group 91">
        <g id="Group_90" data-name="Group 90">
          <path id="Path_51" data-name="Path 51" d="M422.421,482.652H409.138a1.054,1.054,0,0,0-1.038,1.062v8.169a1.029,1.029,0,0,0,1.038,1.015h.538v-6.662a1.968,1.968,0,0,1,1.98-1.961H423.45v-.561A1.046,1.046,0,0,0,422.421,482.652Z" fill="#485e76"/>
        </g>
      </g>
      <g id="Group_93" data-name="Group 93">
        <g id="Group_92" data-name="Group 92">
          <path id="Path_52" data-name="Path 52" d="M423.867,492.249a.742.742,0,0,0-1.047.093.566.566,0,0,1-.07.069.465.465,0,0,1-.654-.069.744.744,0,0,0-1.321.477.751.751,0,0,0,.751.747.729.729,0,0,0,.575-.269.459.459,0,0,1,.357-.167.446.446,0,0,1,.357.162.593.593,0,0,0,.1.1.744.744,0,1,0,.955-1.14Z" fill="#485e76"/>
        </g>
      </g>
      <g id="Group_95" data-name="Group 95">
        <g id="Group_94" data-name="Group 94">
          <path id="Path_53" data-name="Path 53" d="M424.943,485.2H411.656a1.041,1.041,0,0,0-1.052,1.034v.681H426v-.681A1.043,1.043,0,0,0,424.943,485.2Z" fill="#485e76"/>
        </g>
      </g>
      <g id="Group_97" data-name="Group 97">
        <g id="Group_96" data-name="Group 96">
          <rect id="Rectangle_65" data-name="Rectangle 65" width="15.392" height="1.205" transform="translate(410.604 487.845)" fill="#485e76"/>
        </g>
      </g>
      <g id="Group_99" data-name="Group 99">
        <g id="Group_98" data-name="Group 98">
          <path id="Path_54" data-name="Path 54" d="M410.6,489.977v4.409a1.06,1.06,0,0,0,1.052,1.062h13.282a1.067,1.067,0,0,0,1.057-1.062v-4.409Zm14.181,3.774a1.677,1.677,0,0,1-2.327.45,1.653,1.653,0,0,1-.936.287,1.676,1.676,0,0,1,0-3.352,1.654,1.654,0,0,1,.936.288,1.676,1.676,0,0,1,2.327,2.327Z" fill="#485e76"/>
        </g>
      </g>
    </g>
  </g>
</svg>
