<svg xmlns="http://www.w3.org/2000/svg" width="25.333" height="16.521" viewBox="0 0 25.333 16.521">
  <g id="Group_87" data-name="Group 87" transform="translate(-405.667 -300.406)">
    <g id="Group_86" data-name="Group 86">
      <g id="Group_75" data-name="Group 75">
        <g id="Group_74" data-name="Group 74">
          <circle id="Ellipse_11" data-name="Ellipse 11" cx="3.855" cy="3.855" r="3.855" transform="translate(414.478 300.406)" fill="#74b95c"/>
        </g>
      </g>
      <g id="Group_77" data-name="Group 77">
        <g id="Group_76" data-name="Group 76">
          <circle id="Ellipse_12" data-name="Ellipse 12" cx="2.754" cy="2.754" r="2.754" transform="translate(423.29 304.811)" fill="#74b95c"/>
        </g>
      </g>
      <g id="Group_79" data-name="Group 79">
        <g id="Group_78" data-name="Group 78">
          <circle id="Ellipse_13" data-name="Ellipse 13" cx="2.754" cy="2.754" r="2.754" transform="translate(407.948 304.811)" fill="#74b95c"/>
        </g>
      </g>
      <g id="Group_81" data-name="Group 81">
        <g id="Group_80" data-name="Group 80">
          <path id="Path_45" data-name="Path 45" d="M418.333,309.217a7.168,7.168,0,0,0-7.159,7.16.551.551,0,0,0,.551.55h13.217a.551.551,0,0,0,.551-.55A7.168,7.168,0,0,0,418.333,309.217Z" fill="#74b95c"/>
        </g>
      </g>
      <g id="Group_83" data-name="Group 83">
        <g id="Group_82" data-name="Group 82">
          <path id="Path_46" data-name="Path 46" d="M411.651,311.539a4.909,4.909,0,0,0-5.984,4.838.551.551,0,0,0,.551.55h3.956a1.625,1.625,0,0,1-.1-.55A8.208,8.208,0,0,1,411.651,311.539Z" fill="#74b95c"/>
        </g>
      </g>
      <g id="Group_85" data-name="Group 85">
        <g id="Group_84" data-name="Group 84">
          <path id="Path_47" data-name="Path 47" d="M426.044,311.42a4.919,4.919,0,0,0-1.028.119,8.208,8.208,0,0,1,1.578,4.838,1.626,1.626,0,0,1-.1.55h3.956a.551.551,0,0,0,.551-.55A4.963,4.963,0,0,0,426.044,311.42Z" fill="#74b95c"/>
        </g>
      </g>
    </g>
  </g>
</svg>
