<svg xmlns="http://www.w3.org/2000/svg" width="16" height="16" viewBox="0 0 16 16">
  <g id="Group_26" data-name="Group 26" transform="translate(-1518.333 -109.333)">
    <g id="Group_25" data-name="Group 25">
      <g id="Group_24" data-name="Group 24">
        <path id="Path_19" data-name="Path 19" d="M1526.333,109.333a8,8,0,1,0,8,8A8.009,8.009,0,0,0,1526.333,109.333ZM1526,122.667a1,1,0,1,1,1-1A1,1,0,0,1,1526,122.667Zm1-4.067v1.067a.333.333,0,0,1-.333.333h-1.334a.333.333,0,0,1-.333-.333V118a1.335,1.335,0,0,1,1.333-1.333,1.333,1.333,0,1,0-1.333-1.334v.334a.333.333,0,0,1-.333.333h-1.334a.333.333,0,0,1-.333-.333v-.334a3.333,3.333,0,1,1,4,3.267Z" fill="#8ea4bc"/>
      </g>
    </g>
  </g>
</svg>
