<svg xmlns="http://www.w3.org/2000/svg" width="15.501" height="12.945" viewBox="0 0 15.501 12.945">
  <g id="Group_45" data-name="Group 45" transform="translate(-1160.016 -577.637)">
    <g id="Group_44" data-name="Group 44">
      <g id="Group_43" data-name="Group 43">
        <path id="Path_25" data-name="Path 25" d="M1164.978,583.5a4.107,4.107,0,0,0-1.135-.166,3.572,3.572,0,0,0-1.423.291c.357-1.309,1.217-3.569,2.928-3.823a.407.407,0,0,0,.332-.293l.374-1.338a.4.4,0,0,0-.051-.332.41.41,0,0,0-.285-.18,2.872,2.872,0,0,0-.383-.026c-2.054,0-4.089,2.145-4.948,5.215-.5,1.8-.652,4.51.59,6.215a3.707,3.707,0,0,0,3.013,1.515h.015a3.606,3.606,0,0,0,.973-7.078Z" fill="#606060"/>
        <path id="Path_26" data-name="Path 26" d="M1175.052,585.207a3.612,3.612,0,0,0-2.168-1.7,4.107,4.107,0,0,0-1.135-.166,3.576,3.576,0,0,0-1.423.291c.358-1.309,1.217-3.569,2.929-3.823a.409.409,0,0,0,.332-.293l.374-1.338a.407.407,0,0,0-.337-.512,2.868,2.868,0,0,0-.382-.026c-2.055,0-4.09,2.145-4.949,5.215-.5,1.8-.651,4.51.59,6.216a3.71,3.71,0,0,0,3.013,1.514h.016a3.605,3.605,0,0,0,3.14-5.375Z" fill="#606060"/>
      </g>
    </g>
  </g>
</svg>
