<svg xmlns="http://www.w3.org/2000/svg" width="11.084" height="6.547" viewBox="0 0 11.084 6.547">
  <g id="Group_45" data-name="Group 45" transform="translate(-857.456 -34)">
    <g id="Group_44" data-name="Group 44">
      <g id="Group_43" data-name="Group 43">
        <path id="Path_24" data-name="Path 24" d="M868.363,34.547,868,34.182a.608.608,0,0,0-.858,0L863,38.324l-4.146-4.147a.608.608,0,0,0-.858,0l-.363.363a.608.608,0,0,0,0,.858l4.937,4.955a.619.619,0,0,0,.43.194h0a.621.621,0,0,0,.429-.194l4.932-4.942a.616.616,0,0,0,0-.864Z" fill="#ced8e1"/>
      </g>
    </g>
  </g>
</svg>
