<svg xmlns="http://www.w3.org/2000/svg" width="62" height="55.927" viewBox="0 0 62 55.927">
  <g id="Group_121" data-name="Group 121" transform="translate(-392 -236.036)">
    <g id="Group_79" data-name="Group 79">
      <path id="Path_72" data-name="Path 72" d="M398.378,281.128c0-12.312-6.378-20.767-6.378-26.7s3.41-18.393,30.7-18.393S454,252.8,454,259.324C454,289.881,398.378,302.933,398.378,281.128Z" fill="#efefef"/>
      <g id="Group_78" data-name="Group 78">
        <path id="Path_73" data-name="Path 73" d="M400.973,242.863h3.56v1.78h-3.56Z" fill="#a4afc1"/>
        <path id="Path_74" data-name="Path 74" d="M411.208,242.863h3.56v1.78h-3.56Z" fill="#a4afc1"/>
        <path id="Path_75" data-name="Path 75" d="M406.758,247.313h1.78v3.559h-1.78Z" fill="#a4afc1"/>
        <path id="Path_76" data-name="Path 76" d="M406.758,237.078h1.78v3.56h-1.78Z" fill="#a4afc1"/>
      </g>
    </g>
    <g id="Group_94" data-name="Group 94">
      <path id="Path_95" data-name="Path 95" d="M425.2,280.538l-1.1-6.064.551-1.654-1.654-1.1-1.654,1.1.551,1.654-1.1,6.064Z" fill="#0f996d"/>
      <path id="Path_96" data-name="Path 96" d="M434.2,265.682a4.281,4.281,0,0,1-2.93-4.066V255.18a8.269,8.269,0,0,0-16.538,0v6.436a4.281,4.281,0,0,1-2.93,4.066l-.6.2.458.918a5.905,5.905,0,0,0,3.878,3.081l4.71-1.472v-2.4a5.512,5.512,0,0,1-2.729-4.218h-.028a2.205,2.205,0,0,1,0-4.41v-1.654h.462a2.419,2.419,0,0,0,2.295-1.653l-.552,1.653h1.014A2.419,2.419,0,0,0,423,254.078l-.551,1.653h1.013a2.418,2.418,0,0,0,2.294-1.653l-.551,1.653h1.013a2.42,2.42,0,0,0,2.3-1.653v3.307a2.205,2.205,0,0,1,0,4.41h-.028a5.509,5.509,0,0,1-2.729,4.218v2.4l4.709,1.471a5.891,5.891,0,0,0,3.879-3.08l.458-.918Z" fill="#0f996d"/>
      <path id="Path_97" data-name="Path 97" d="M423,264.551a2.207,2.207,0,0,0,2.2-2.2h-1.1a1.1,1.1,0,1,1-2.206,0h-1.1A2.207,2.207,0,0,0,423,264.551Z" fill="#484848"/>
      <path id="Path_98" data-name="Path 98" d="M423,246.911A17.089,17.089,0,1,0,440.089,264,17.108,17.108,0,0,0,423,246.911Zm0,1.1A15.974,15.974,0,0,1,435.128,274.4v-.8a3.843,3.843,0,0,0-2.708-3.683l-6.112-1.91V266.32a6.073,6.073,0,0,0,2.658-4.019,2.751,2.751,0,0,0,.1-5.411v-2.812h-.551l-.524-.175a1.864,1.864,0,0,1-1.771,1.277h-.455a2.988,2.988,0,0,0,.517-.928l-1.046-.349a1.866,1.866,0,0,1-1.772,1.277h-.455a2.986,2.986,0,0,0,.516-.928l-1.046-.349a1.864,1.864,0,0,1-1.771,1.277h-.456a2.968,2.968,0,0,0,.517-.928l-1.046-.349a1.861,1.861,0,0,1-1.682,1.27v-1.1h-1.1v2.812a2.751,2.751,0,0,0,.1,5.411,6.071,6.071,0,0,0,2.658,4.019v1.685l-6.112,1.91a3.842,3.842,0,0,0-2.709,3.683v.8A15.974,15.974,0,0,1,423,248.014Zm0,22.843-2.2-2.646v-1.325a5.971,5.971,0,0,0,4.41,0v1.325Zm-3.859-1.525.915-.286,2.149,2.579-.052.039a1.892,1.892,0,0,1-2.461-.174,1.872,1.872,0,0,1-.551-1.331Zm-2.2-8.19a1.644,1.644,0,0,1,0-3.1Zm1.1-4.867a2.962,2.962,0,0,0,1.653-.557v.565h1.014a2.972,2.972,0,0,0,1.743-.565v.565h1.013a2.97,2.97,0,0,0,1.743-.565v.565h1.013a2.97,2.97,0,0,0,1.743-.565v2.77h-.652a1.653,1.653,0,0,0-1.553-1.1H425.2a1.651,1.651,0,0,0-1.552,1.1h-1.306a1.653,1.653,0,0,0-1.553-1.1h-.551a1.651,1.651,0,0,0-1.552,1.1h-.652Zm11.025,1.763a1.644,1.644,0,0,1,0,3.1Zm-2.756,1a.552.552,0,0,1-.552.551H425.2a.551.551,0,1,1,0-1.1h.551A.552.552,0,0,1,426.308,259.039Zm-4.962,0a.551.551,0,0,1-.551.551h-.551a.551.551,0,1,1,0-1.1h.551A.551.551,0,0,1,421.346,259.039Zm-3.307.551h.652a1.653,1.653,0,0,0,1.553,1.1h.551a1.651,1.651,0,0,0,1.552-1.1h1.306a1.653,1.653,0,0,0,1.553,1.1h.551a1.651,1.651,0,0,0,1.552-1.1h.652v1.654a4.961,4.961,0,0,1-9.922,0Zm7.9,9.456.915.286v.827a1.872,1.872,0,0,1-.551,1.331,1.892,1.892,0,0,1-2.46.174l-.053-.039Zm-9.008,9.743v-6.52h-1.1v6.015a16.029,16.029,0,0,1-3.859-2.724V273.6a2.743,2.743,0,0,1,1.934-2.63l4.13-1.291v.482a2.989,2.989,0,0,0,4.775,2.387l.186-.139.186.139a2.984,2.984,0,0,0,4.775-2.387v-.482l4.13,1.291a2.743,2.743,0,0,1,1.934,2.63v1.962a16.029,16.029,0,0,1-3.859,2.724v-6.015h-1.1v6.52a15.946,15.946,0,0,1-12.128,0Z" fill="#484848"/>
    </g>
  </g>
</svg>
