<svg xmlns="http://www.w3.org/2000/svg" width="58" height="52.319" viewBox="0 0 58 52.319">
  <g id="Group_123" data-name="Group 123" transform="translate(-797 -236.84)">
    <g id="Group_81" data-name="Group 81">
      <path id="Path_77" data-name="Path 77" d="M802.966,279.023c0-11.517-5.966-19.427-5.966-24.977s3.19-17.206,28.722-17.206S855,252.521,855,258.625C855,287.211,802.966,299.421,802.966,279.023Z" fill="#efefef"/>
      <g id="Group_80" data-name="Group 80">
        <path id="Path_78" data-name="Path 78" d="M805.394,243.226h3.33v1.665h-3.33Z" fill="#a4afc1"/>
        <path id="Path_79" data-name="Path 79" d="M814.968,243.226H818.3v1.665h-3.331Z" fill="#a4afc1"/>
        <path id="Path_80" data-name="Path 80" d="M810.806,247.389h1.665v3.33h-1.665Z" fill="#a4afc1"/>
        <path id="Path_81" data-name="Path 81" d="M810.806,237.815h1.665v3.33h-1.665Z" fill="#a4afc1"/>
      </g>
    </g>
    <path id="Path_99" data-name="Path 99" d="M832.363,281.986s7.762-3.276,7.762-9.829v-5.9l-7.762-2.621-7.763,2.621v5.9C824.6,278.71,832.363,281.986,832.363,281.986Z" fill="#0f996d"/>
    <path id="Path_100" data-name="Path 100" d="M833.774,281.252a12.424,12.424,0,0,1-1.411.734s-7.763-3.275-7.763-9.823v-5.9l7.763-2.625,1.411.48-6.351,2.145v5.9c0,4.77,4.121,7.8,6.351,9.089Z" fill="#00b871"/>
    <path id="Path_101" data-name="Path 101" d="M822.511,280.222H807.664a1.059,1.059,0,0,1-1.028-1.314l.762-3.063a4.869,4.869,0,0,1,3.208-3.459l5.67-1.89c.653-.274,1.1-1.389,1.173-3-.763-.712-2.037-2.131-2.037-3.657a1.026,1.026,0,0,0-.044-.335,1.052,1.052,0,0,1-.515-.557,9.983,9.983,0,0,1-.711-2.947,1.139,1.139,0,0,1,.029-.253,2.065,2.065,0,0,1,.626-1.051q.011-.189.021-.4c.037-.693.086-1.616.086-2.765,0-2.776,3.255-7.057,7.579-7.057,3.647,0,5.5,1.915,5.939,3.279.877.516,1.711,1.435,1.711,3.778v3.183a2.164,2.164,0,0,1,.636.955,1.041,1.041,0,0,1,.055.336l-1.15.031-.912.305a.666.666,0,0,0,.312.089,1.059,1.059,0,0,1-1.058-1.059v-3.839c0-1.624-.451-1.851-.75-2a1.344,1.344,0,0,1-.859-1.191c-.054-.227-1.024-1.75-3.924-1.75-3.1,0-5.462,4.939-5.462,4.939s-.049,2.156-.089,2.877c-.021.4-.038.722-.038.962a1.059,1.059,0,0,1-.608.959,9.288,9.288,0,0,0,.413,1.521,2.446,2.446,0,0,1,.83,1.994,4.3,4.3,0,0,0,1.665,2.376,1.06,1.06,0,0,1,.383.814c0,2.831-.909,4.768-2.559,5.452l-5.743,1.918a2.765,2.765,0,0,0-1.82,1.965l-.437,1.744h13.493Zm-6.951-16.649h0Zm0,0" fill="#484848"/>
    <path id="Path_102" data-name="Path 102" d="M832.363,283.044a1.068,1.068,0,0,1-.412-.083c-.343-.145-8.409-3.631-8.409-10.8v-5.9a1.056,1.056,0,0,1,.719-1l7.763-2.621a1.047,1.047,0,0,1,.677,0l7.763,2.621a1.059,1.059,0,0,1,.72,1v5.9c0,7.173-8.066,10.66-8.409,10.8A1.071,1.071,0,0,1,832.363,283.044Zm-6.7-16.024v5.137c0,4.962,5.184,7.9,6.7,8.66,1.517-.759,6.706-3.716,6.706-8.66V267.02l-6.7-2.264Z" fill="#484848"/>
  </g>
</svg>
