<svg xmlns="http://www.w3.org/2000/svg" width="39.908" height="35.999" viewBox="0 0 39.908 35.999">
  <g id="Group_128" data-name="Group 128" transform="translate(-799.046 -639)">
    <g id="Group_75" data-name="Group 75">
      <path id="Path_62" data-name="Path 62" d="M803.151,668.025c0-7.925-4.1-13.367-4.1-17.186S801.241,639,818.809,639s20.145,10.79,20.145,14.99C838.956,673.659,803.151,682.061,803.151,668.025Z" fill="#efefef"/>
      <g id="Group_74" data-name="Group 74">
        <path id="Path_63" data-name="Path 63" d="M804.821,643.394h2.292v1.146h-2.292Z" fill="#a4afc1"/>
        <path id="Path_64" data-name="Path 64" d="M811.409,643.394H813.7v1.146h-2.292Z" fill="#a4afc1"/>
        <path id="Path_65" data-name="Path 65" d="M808.545,646.258h1.146v2.292h-1.146Z" fill="#a4afc1"/>
        <path id="Path_66" data-name="Path 66" d="M808.545,639.67h1.146v2.292h-1.146Z" fill="#a4afc1"/>
      </g>
    </g>
    <g id="Group_100" data-name="Group 100">
      <path id="Path_129" data-name="Path 129" d="M830.677,654.838v5.484a1.289,1.289,0,0,1-1.29,1.29v3.321l-3.226-3.321h-6.129a1.29,1.29,0,0,1-1.29-1.29v-5.484a1.291,1.291,0,0,1,1.29-1.29h9.355A1.29,1.29,0,0,1,830.677,654.838Z" fill="#0f996d"/>
      <g id="Group_99" data-name="Group 99">
        <path id="Path_130" data-name="Path 130" d="M829.387,653.225h-5.806v-4.516a1.615,1.615,0,0,0-1.613-1.613h-9.355A1.615,1.615,0,0,0,811,648.709v5.484a1.616,1.616,0,0,0,1.29,1.581V658.8a.323.323,0,0,0,.554.226l3.131-3.223h2.444v4.516a1.615,1.615,0,0,0,1.613,1.613h5.993l3.131,3.223a.323.323,0,0,0,.554-.226V661.9a1.616,1.616,0,0,0,1.29-1.581v-5.484A1.615,1.615,0,0,0,829.387,653.225Zm-13.548,1.936a.326.326,0,0,0-.232.1l-2.672,2.75v-2.525a.322.322,0,0,0-.322-.322.967.967,0,0,1-.968-.968v-5.484a.968.968,0,0,1,.968-.968h9.355a.968.968,0,0,1,.967.968v4.516h-2.9a1.607,1.607,0,0,0-1.067.413l-1.864-1.864,1.129-1.129h.835a.323.323,0,0,0,0-.645h-1.936v-.646a.323.323,0,0,0-.645,0V650h-1.613a.323.323,0,1,0,0,.645h2.447l-3.159,3.159a.322.322,0,1,0,.456.456l2.03-2.03,1.869,1.869a.313.313,0,0,0,.069.045,1.594,1.594,0,0,0-.164.694v.323Zm14.516,5.161a.967.967,0,0,1-.968.968.322.322,0,0,0-.322.322v2.526l-2.672-2.751a.326.326,0,0,0-.232-.1h-6.129a.967.967,0,0,1-.967-.968v-5.484a.967.967,0,0,1,.967-.967h9.355a.967.967,0,0,1,.968.967Z" fill="#484848"/>
        <path id="Path_131" data-name="Path 131" d="M826.077,658.276a.315.315,0,0,0,.062-.331.318.318,0,0,0-.273-.2l-.7-1.738a.323.323,0,0,0-.286-.2.307.307,0,0,0-.3.178l-1.613,3.226a.323.323,0,1,0,.578.288l.556-1.111h1.322l.435,1.087a.323.323,0,0,0,.3.2.328.328,0,0,0,.12-.023.322.322,0,0,0,.18-.419Zm-1.652-.535.413-.826.331.826Z" fill="#fff"/>
        <path id="Path_132" data-name="Path 132" d="M829.71,654.838h-2.258a.322.322,0,1,0,0,.645h2.258a.322.322,0,0,0,0-.645Z" fill="#fff"/>
        <path id="Path_133" data-name="Path 133" d="M826.361,654.864a.349.349,0,0,0-.106.068.337.337,0,0,0-.094.229.323.323,0,0,0,.645,0,.337.337,0,0,0-.093-.229A.324.324,0,0,0,826.361,654.864Z" fill="#fff"/>
        <path id="Path_134" data-name="Path 134" d="M820.032,649.032h2.258a.322.322,0,1,0,0-.645h-2.258a.322.322,0,0,0,0,.645Z" fill="#484848"/>
        <path id="Path_135" data-name="Path 135" d="M818.835,648.938a.32.32,0,0,0,.352.068.366.366,0,0,0,.107-.068.318.318,0,0,0,.067-.351.387.387,0,0,0-.067-.107.509.509,0,0,0-.052-.039.226.226,0,0,0-.055-.029.214.214,0,0,0-.062-.019.3.3,0,0,0-.183.019.342.342,0,0,0-.107.068.385.385,0,0,0-.067.107.3.3,0,0,0,0,.245A.366.366,0,0,0,818.835,648.938Z" fill="#484848"/>
      </g>
    </g>
  </g>
</svg>
