<svg xmlns="http://www.w3.org/2000/svg" width="39.908" height="35.999" viewBox="0 0 39.908 35.999">
  <g id="Group_127" data-name="Group 127" transform="translate(-397.046 -630)">
    <g id="Group_67" data-name="Group 67">
      <path id="Path_35" data-name="Path 35" d="M401.151,659.025c0-7.925-4.105-13.367-4.105-17.186S399.241,630,416.809,630s20.145,10.79,20.145,14.99C436.956,664.659,401.151,673.061,401.151,659.025Z" fill="#efefef"/>
      <g id="Group_66" data-name="Group 66">
        <path id="Path_36" data-name="Path 36" d="M402.821,634.394h2.292v1.146h-2.292Z" fill="#a4afc1"/>
        <path id="Path_37" data-name="Path 37" d="M409.409,634.394H411.7v1.146h-2.292Z" fill="#a4afc1"/>
        <path id="Path_38" data-name="Path 38" d="M406.545,637.258h1.146v2.292h-1.146Z" fill="#a4afc1"/>
        <path id="Path_39" data-name="Path 39" d="M406.545,630.67h1.146v2.292h-1.146Z" fill="#a4afc1"/>
      </g>
      <path id="Path_40" data-name="Path 40" d="M412.417,657.452a3.438,3.438,0,0,0,6.875,0Z" fill="#0f996d"/>
      <path id="Path_41" data-name="Path 41" d="M423.015,645.708v3.2a8.543,8.543,0,0,0,3.03,6.527h0l.005,0a1.145,1.145,0,0,1-.744,2.016H406.4a1.145,1.145,0,0,1-.745-2.016l.006,0h0a8.547,8.547,0,0,0,3.029-6.527v-3.2a7.161,7.161,0,0,1,14.322,0Z" fill="#f3f3f1"/>
      <path id="Path_42" data-name="Path 42" d="M407.834,656.306a1.14,1.14,0,0,1,.4-.87l.006,0h0a8.547,8.547,0,0,0,3.029-6.527v-3.2a7.159,7.159,0,0,1,5.872-7.039,7.136,7.136,0,0,0-8.45,7.039v3.2a8.546,8.546,0,0,1-3.029,6.527h0l-.006,0a1.145,1.145,0,0,0,.745,2.016h2.578A1.149,1.149,0,0,1,407.834,656.306Z" fill="#d5dbe1"/>
      <circle id="Ellipse_1" data-name="Ellipse 1" cx="4.869" cy="4.869" r="4.869" transform="translate(419.005 635.11)" fill="#0f996d"/>
      <path id="Path_43" data-name="Path 43" d="M421.583,639.979a4.856,4.856,0,0,1,3.58-4.674,4.772,4.772,0,0,0-1.288-.2,4.87,4.87,0,1,0,0,9.739,4.772,4.772,0,0,0,1.288-.2A4.856,4.856,0,0,1,421.583,639.979Z" fill="#00b871"/>
      <path id="Path_44" data-name="Path 44" d="M415.854,661.749a4.3,4.3,0,0,1-4.3-4.3h1.718a2.578,2.578,0,0,0,5.156,0h1.719A4.3,4.3,0,0,1,415.854,661.749Z" fill="#484848"/>
      <path id="Path_45" data-name="Path 45" d="M425.307,658.311H406.4a2,2,0,0,1-1.3-3.528c.028-.024.057-.046.087-.067a7.7,7.7,0,0,0,2.648-5.811v-3.2a8.03,8.03,0,0,1,8.02-8.02,3.45,3.45,0,0,1,.565.034l-.282,1.7a1.67,1.67,0,0,0-.283-.012,6.309,6.309,0,0,0-6.3,6.3v3.2a9.419,9.419,0,0,1-3.328,7.185c-.015.012-.029.025-.047.038a.281.281,0,0,0-.063.179.29.29,0,0,0,.287.287h18.9a.289.289,0,0,0,.286-.287.275.275,0,0,0-.063-.179l-.046-.037a9.417,9.417,0,0,1-3.328-7.185v-1.249h1.719v1.249a7.7,7.7,0,0,0,2.651,5.815.832.832,0,0,1,.083.063,2,2,0,0,1-1.3,3.528Z" fill="#484848"/>
      <path id="Path_46" data-name="Path 46" d="M423.875,645.708a5.729,5.729,0,1,1,5.728-5.729A5.735,5.735,0,0,1,423.875,645.708Zm0-9.739a4.01,4.01,0,1,0,4.01,4.01A4.015,4.015,0,0,0,423.875,635.969Z" fill="#484848"/>
    </g>
  </g>
</svg>
