<svg xmlns="http://www.w3.org/2000/svg" width="39.908" height="35.999" viewBox="0 0 39.908 35.999">
  <g id="Group_129" data-name="Group 129" transform="translate(-1203.046 -643)">
    <g id="Group_77" data-name="Group 77">
      <path id="Path_67" data-name="Path 67" d="M1207.151,672.025c0-7.925-4.1-13.367-4.1-17.186S1205.241,643,1222.809,643s20.145,10.79,20.145,14.99C1242.956,677.659,1207.151,686.061,1207.151,672.025Z" fill="#efefef"/>
      <g id="Group_76" data-name="Group 76">
        <path id="Path_68" data-name="Path 68" d="M1208.821,647.394h2.292v1.146h-2.292Z" fill="#a4afc1"/>
        <path id="Path_69" data-name="Path 69" d="M1215.409,647.394h2.292v1.146h-2.292Z" fill="#a4afc1"/>
        <path id="Path_70" data-name="Path 70" d="M1212.545,650.258h1.146v2.292h-1.146Z" fill="#a4afc1"/>
        <path id="Path_71" data-name="Path 71" d="M1212.545,643.67h1.146v2.292h-1.146Z" fill="#a4afc1"/>
      </g>
    </g>
    <g id="Group_115" data-name="Group 115">
      <g id="color">
        <g id="Group_101" data-name="Group 101">
          <path id="Path_136" data-name="Path 136" d="M1230.729,650.85h-11.458a1.839,1.839,0,0,0-1.833,1.834v7.947L1225,664.2l7.563-3.566v-7.947A1.839,1.839,0,0,0,1230.729,650.85Zm-8.708,8.754,2.182-2.52h1.6l2.172,2.52Zm0-2.75,2.979-3.208,2.979,3.208Z" fill="#0f996d"/>
        </g>
        <g id="Group_103" data-name="Group 103">
          <g id="Group_102" data-name="Group 102">
            <path id="Path_137" data-name="Path 137" d="M1216.75,669.229V658.152a1.82,1.82,0,0,1,.688-1.411v-1.087h-.229l-1.593.9a1.833,1.833,0,0,0-.928,1.594v11.077a1.375,1.375,0,0,0,1.375,1.375h2.062A1.375,1.375,0,0,1,1216.75,669.229Z" fill="#d5dbe1"/>
          </g>
        </g>
        <g id="Group_105" data-name="Group 105">
          <g id="Group_104" data-name="Group 104">
            <path id="Path_138" data-name="Path 138" d="M1219.5,660.631v-7.947a1.839,1.839,0,0,1,1.834-1.834h-2.063a1.839,1.839,0,0,0-1.833,1.834v7.947L1225,664.2l1.031-.486Z" fill="#00b871"/>
          </g>
        </g>
      </g>
      <g id="_1.5" data-name="1.5">
        <g id="Group_107" data-name="Group 107">
          <g id="Group_106" data-name="Group 106">
            <path id="Path_139" data-name="Path 139" d="M1225,664.883a2.515,2.515,0,0,1-1.124-.264l-9.495-4.748.614-1.23,9.5,4.748a1.133,1.133,0,0,0,1.015,0l9.5-4.748.614,1.23-9.5,4.748A2.5,2.5,0,0,1,1225,664.883Z" fill="#484848"/>
          </g>
        </g>
        <g id="Group_109" data-name="Group 109">
          <g id="Group_108" data-name="Group 108">
            <path id="Path_140" data-name="Path 140" d="M1233.938,671.292h-17.875a2.065,2.065,0,0,1-2.062-2.063V658.152a2.526,2.526,0,0,1,1.276-2.192l1.593-.9.678,1.2-1.592.9a1.147,1.147,0,0,0-.581,1v11.077a.689.689,0,0,0,.688.688h17.875a.689.689,0,0,0,.687-.688V658.152a1.148,1.148,0,0,0-.58-1l-1.592-.9.678-1.2,1.592.9a2.526,2.526,0,0,1,1.277,2.192v11.077A2.066,2.066,0,0,1,1233.938,671.292Z" fill="#484848"/>
          </g>
        </g>
        <g id="Group_110" data-name="Group 110">
          <path id="Path_141" data-name="Path 141" d="M1227.979,657.542h-5.958a.688.688,0,0,1-.5-1.156l2.979-3.208a.71.71,0,0,1,1.008,0l2.98,3.208a.688.688,0,0,1-.505,1.156Zm-4.381-1.375h2.806l-1.4-1.511Z" fill="#484848"/>
        </g>
        <g id="Group_111" data-name="Group 111">
          <path id="Path_142" data-name="Path 142" d="M1227.979,660.292h-5.958a.688.688,0,0,1-.52-1.138l2.181-2.52,1.041.9-1.2,1.383h2.955l-1.194-1.385,1.043-.9,2.172,2.521a.688.688,0,0,1-.521,1.137Z" fill="#484848"/>
        </g>
        <g id="Group_112" data-name="Group 112">
          <path id="Path_143" data-name="Path 143" d="M1224.313,659.834h1.375v1.6h-1.375Z" fill="#484848"/>
        </g>
        <g id="Group_114" data-name="Group 114">
          <g id="Group_113" data-name="Group 113">
            <path id="Path_144" data-name="Path 144" d="M1233.25,660.631h-1.375v-7.947a1.147,1.147,0,0,0-1.146-1.146h-11.458a1.148,1.148,0,0,0-1.146,1.146v7.947h-1.375v-7.947a2.523,2.523,0,0,1,2.521-2.521h11.458a2.523,2.523,0,0,1,2.521,2.521Z" fill="#484848"/>
          </g>
        </g>
      </g>
    </g>
  </g>
</svg>
