<svg xmlns="http://www.w3.org/2000/svg" width="19.923" height="19.923" viewBox="0 0 19.923 19.923">
  <path id="Path_62" data-name="Path 62" d="M1270.531,102.975l-1.531-.333a8.261,8.261,0,0,0-.493-1.188l.848-1.319a.6.6,0,0,0-.08-.743l-2.385-2.385a.6.6,0,0,0-.743-.08l-1.319.848a8.267,8.267,0,0,0-1.188-.493l-.333-1.531a.6.6,0,0,0-.582-.469h-3.373a.6.6,0,0,0-.582.469l-.333,1.531a8.308,8.308,0,0,0-1.188.493l-1.319-.848a.6.6,0,0,0-.742.08l-2.386,2.385a.6.6,0,0,0-.08.743l.848,1.319a8.26,8.26,0,0,0-.493,1.188l-1.531.333a.6.6,0,0,0-.469.582v3.373a.6.6,0,0,0,.469.582l1.531.333a8.308,8.308,0,0,0,.493,1.188l-.848,1.318a.6.6,0,0,0,.08.743l2.386,2.386a.6.6,0,0,0,.742.08l1.319-.848a8.424,8.424,0,0,0,1.188.493l.333,1.531a.6.6,0,0,0,.582.469h3.373a.6.6,0,0,0,.582-.469l.333-1.531a8.383,8.383,0,0,0,1.188-.493l1.319.848a.6.6,0,0,0,.743-.08l2.385-2.386a.6.6,0,0,0,.08-.743l-.848-1.318a8.308,8.308,0,0,0,.493-1.188l1.531-.333a.6.6,0,0,0,.469-.582v-3.373A.6.6,0,0,0,1270.531,102.975Zm-5.921,2.268a3.571,3.571,0,1,1-3.571-3.572A3.575,3.575,0,0,1,1264.61,105.243Z" transform="translate(-1251.077 -95.282)" fill="#606060"/>
</svg>
