<svg xmlns="http://www.w3.org/2000/svg" width="56" height="50.514" viewBox="0 0 56 50.514">
  <g id="Group_122" data-name="Group 122" transform="translate(-393 -437.743)">
    <g id="Group_69" data-name="Group 69">
      <path id="Path_47" data-name="Path 47" d="M398.76,478.471c0-11.121-5.76-18.757-5.76-24.116s3.08-16.612,27.732-16.612S449,452.882,449,458.776C449,486.376,398.76,498.165,398.76,478.471Z" fill="#efefef"/>
      <g id="Group_68" data-name="Group 68">
        <path id="Path_48" data-name="Path 48" d="M401.105,443.908h3.215v1.608h-3.215Z" fill="#a4afc1"/>
        <path id="Path_49" data-name="Path 49" d="M410.349,443.908h3.215v1.608h-3.215Z" fill="#a4afc1"/>
        <path id="Path_50" data-name="Path 50" d="M406.33,447.927h1.607v3.216H406.33Z" fill="#a4afc1"/>
        <path id="Path_51" data-name="Path 51" d="M406.33,438.683h1.607V441.9H406.33Z" fill="#a4afc1"/>
      </g>
    </g>
    <g id="Group_84" data-name="Group 84">
      <circle id="Ellipse_2" data-name="Ellipse 2" cx="2.105" cy="2.105" r="2.105" transform="translate(417.609 454.113)" fill="#90a4ae"/>
    </g>
    <g id="Group_86" data-name="Group 86">
      <g id="Group_85" data-name="Group 85">
        <path id="Path_87" data-name="Path 87" d="M430.238,477.675a6.84,6.84,0,1,1,6.84-6.84A6.847,6.847,0,0,1,430.238,477.675Z" fill="#0f996d"/>
      </g>
    </g>
    <g id="Group_87" data-name="Group 87">
      <path id="Path_88" data-name="Path 88" d="M420.591,467.911h-5.262a.877.877,0,1,1,0-1.754h5.262a.877.877,0,0,1,0,1.754Z" fill="#484848"/>
    </g>
    <g id="Group_88" data-name="Group 88">
      <path id="Path_89" data-name="Path 89" d="M419.421,471.419h-4.092a.877.877,0,1,1,0-1.754h4.092a.877.877,0,1,1,0,1.754Z" fill="#484848"/>
    </g>
    <g id="Group_89" data-name="Group 89">
      <path id="Path_90" data-name="Path 90" d="M419.714,458.557a2.339,2.339,0,1,1,2.338-2.339A2.341,2.341,0,0,1,419.714,458.557Zm0-2.924a.585.585,0,1,0,.584.585A.585.585,0,0,0,419.714,455.633Z" fill="#484848"/>
    </g>
    <g id="Group_90" data-name="Group 90">
      <path id="Path_91" data-name="Path 91" d="M423.514,464.4a.877.877,0,0,1-.877-.877v-.584a1.464,1.464,0,0,0-1.462-1.462h-2.923a1.464,1.464,0,0,0-1.462,1.462v.584a.877.877,0,1,1-1.754,0v-.584a3.219,3.219,0,0,1,3.216-3.216h2.923a3.219,3.219,0,0,1,3.216,3.216v.584A.877.877,0,0,1,423.514,464.4Z" fill="#484848"/>
    </g>
    <g id="Group_91" data-name="Group 91">
      <path id="Path_92" data-name="Path 92" d="M419.421,474.927H412.99a3.218,3.218,0,0,1-3.216-3.215V453.587a3.219,3.219,0,0,1,3.216-3.216h13.447a3.219,3.219,0,0,1,3.216,3.216v6.5a.877.877,0,0,1-1.754,0v-6.5a1.464,1.464,0,0,0-1.462-1.462H412.99a1.464,1.464,0,0,0-1.462,1.462v18.125a1.464,1.464,0,0,0,1.462,1.461h6.431a.877.877,0,1,1,0,1.754Z" fill="#484848"/>
    </g>
    <g id="Group_92" data-name="Group 92">
      <path id="Path_93" data-name="Path 93" d="M430.238,478.435a7.6,7.6,0,1,1,7.6-7.6A7.609,7.609,0,0,1,430.238,478.435Zm0-13.447a5.846,5.846,0,1,0,5.846,5.847A5.854,5.854,0,0,0,430.238,464.988Z" fill="#484848"/>
    </g>
    <g id="Group_93" data-name="Group 93">
      <path id="Path_94" data-name="Path 94" d="M429.068,473.758a.871.871,0,0,1-.619-.257l-2.339-2.339a.878.878,0,1,1,1.241-1.241l1.675,1.676,3.476-3.971a.877.877,0,1,1,1.32,1.154l-4.093,4.677a.876.876,0,0,1-.631.3Z" fill="#fff"/>
    </g>
  </g>
</svg>
