<svg xmlns="http://www.w3.org/2000/svg" width="13.999" height="14.376" viewBox="0 0 13.999 14.376">
  <path id="Path_208" data-name="Path 208" d="M1363.757,187.576l-1.321-1.033a4.8,4.8,0,0,0,0-1.085l1.322-1.034a.649.649,0,0,0,.157-.826l-1.375-2.376a.649.649,0,0,0-.8-.286l-1.557.626a5.353,5.353,0,0,0-.936-.543l-.239-1.655a.637.637,0,0,0-.636-.551h-2.755a.636.636,0,0,0-.633.547l-.239,1.659a5.459,5.459,0,0,0-.935.544l-1.561-.628a.637.637,0,0,0-.789.281l-1.376,2.38a.644.644,0,0,0,.157.83l1.321,1.033a4.8,4.8,0,0,0,0,1.085l-1.323,1.033a.649.649,0,0,0-.157.826l1.374,2.377a.65.65,0,0,0,.795.286l1.558-.626a5.366,5.366,0,0,0,.936.544l.239,1.653a.637.637,0,0,0,.633.552h2.755a.635.635,0,0,0,.634-.547l.24-1.659a5.488,5.488,0,0,0,.934-.544l1.564.629a.639.639,0,0,0,.789-.281l1.38-2.39A.648.648,0,0,0,1363.757,187.576ZM1357,189a3,3,0,1,1,2.994-2.995A3,3,0,0,1,1357,189Z" transform="translate(-1350.001 -178.813)" fill="#314963"/>
</svg>
