<svg xmlns="http://www.w3.org/2000/svg" width="11.999" height="11.999" viewBox="0 0 11.999 11.999">
  <g id="Group_353" data-name="Group 353" transform="translate(-1351.001 -290.001)">
    <g id="Group_352" data-name="Group 352">
      <g id="Group_351" data-name="Group 351">
        <path id="Path_206" data-name="Path 206" d="M1362.962,295.309a.513.513,0,0,0-.109-.163l-1.5-1.5a.5.5,0,0,0-.707.707l.646.646H1358.5a.5.5,0,0,0,0,1h2.793l-.646.647a.5.5,0,0,0,.707.707l1.5-1.5a.491.491,0,0,0,.109-.163A.506.506,0,0,0,1362.962,295.309Z" fill="#314963"/>
        <path id="Path_207" data-name="Path 207" d="M1359.5,297a.5.5,0,0,0-.5.5V300h-2v-8a.5.5,0,0,0-.357-.479l-1.736-.521H1359v2.5a.5.5,0,0,0,1,0v-3a.5.5,0,0,0-.5-.5h-8a.42.42,0,0,0-.051.009c-.024,0-.045.007-.068.012a.513.513,0,0,0-.144.062c-.011.007-.025.008-.035.016l-.01.011a.507.507,0,0,0-.133.158c-.007.014-.008.028-.014.042a.473.473,0,0,0-.039.117.331.331,0,0,0,0,.044c0,.01-.007.019-.007.029v10a.5.5,0,0,0,.4.49l5,1a.459.459,0,0,0,.1.01.5.5,0,0,0,.5-.5V301h2.5a.5.5,0,0,0,.5-.5v-3A.5.5,0,0,0,1359.5,297Z" fill="#314963"/>
      </g>
    </g>
  </g>
</svg>
