<svg xmlns="http://www.w3.org/2000/svg" width="55.43" height="50.001" viewBox="0 0 55.43 50.001">
  <g id="Group_125" data-name="Group 125" transform="translate(-793.285 -435.999)">
    <g id="Group_71" data-name="Group 71">
      <path id="Path_52" data-name="Path 52" d="M798.987,476.313c0-11.007-5.7-18.566-5.7-23.87S796.334,436,820.734,436s27.981,14.986,27.981,20.82C848.717,484.138,798.987,495.808,798.987,476.313Z" fill="#efefef"/>
      <g id="Group_70" data-name="Group 70">
        <path id="Path_53" data-name="Path 53" d="M801.307,442.1h3.183v1.592h-3.183Z" fill="#a4afc1"/>
        <path id="Path_54" data-name="Path 54" d="M810.457,442.1h3.183v1.592h-3.183Z" fill="#a4afc1"/>
        <path id="Path_55" data-name="Path 55" d="M806.479,446.081h1.591v3.182h-1.591Z" fill="#a4afc1"/>
        <path id="Path_56" data-name="Path 56" d="M806.479,436.93h1.591v3.183h-1.591Z" fill="#a4afc1"/>
      </g>
    </g>
    <g id="Group_97" data-name="Group 97">
      <g id="Group_96" data-name="Group 96">
        <g id="Group_95" data-name="Group 95">
          <path id="Path_114" data-name="Path 114" d="M838.6,450.954a1.3,1.3,0,0,0-1.415-.18l-7.126,3.468-6.686-7.708a1.3,1.3,0,0,0-1.967,0l-6.686,7.708-7.126-3.469a1.3,1.3,0,0,0-1.815,1.55l4.948,16.277a1.3,1.3,0,0,0,1.246.923h20.834a1.3,1.3,0,0,0,1.246-.923L839,452.323A1.3,1.3,0,0,0,838.6,450.954Zm-6.758,15.965h-18.9l-3.8-12.5,5.34,2.6a1.3,1.3,0,0,0,1.553-.318l6.358-7.33,6.357,7.33a1.3,1.3,0,0,0,1.554.318l5.34-2.6Z" fill="#484848"/>
        </g>
      </g>
      <rect id="Rectangle_16" data-name="Rectangle 16" width="22.373" height="3.196" rx="1.151" transform="translate(810.67 472.719)" fill="#0f996d"/>
    </g>
  </g>
</svg>
