<svg xmlns="http://www.w3.org/2000/svg" width="52" height="46.906" viewBox="0 0 52 46.906">
  <g id="Group_126" data-name="Group 126" transform="translate(-1204 -438.547)">
    <g id="Group_73" data-name="Group 73">
      <path id="Path_57" data-name="Path 57" d="M1209.349,476.366c0-10.327-5.349-17.418-5.349-22.393s2.86-15.426,25.751-15.426S1256,452.605,1256,458.078C1256,483.706,1209.349,494.654,1209.349,476.366Z" fill="#efefef"/>
      <g id="Group_72" data-name="Group 72">
        <path id="Path_58" data-name="Path 58" d="M1211.526,444.272h2.985v1.493h-2.985Z" fill="#a4afc1"/>
        <path id="Path_59" data-name="Path 59" d="M1220.11,444.272h2.985v1.493h-2.985Z" fill="#a4afc1"/>
        <path id="Path_60" data-name="Path 60" d="M1216.377,448h1.493v2.986h-1.493Z" fill="#a4afc1"/>
        <path id="Path_61" data-name="Path 61" d="M1216.377,439.42h1.493v2.986h-1.493Z" fill="#a4afc1"/>
      </g>
    </g>
    <g id="Group_98" data-name="Group 98">
      <path id="Path_115" data-name="Path 115" d="M1235.293,457.962v-1.744a1.194,1.194,0,0,0-1.194-1.194h-6.3v2.986Z" fill="#f3f3f1"/>
      <path id="Path_116" data-name="Path 116" d="M1227.828,458.01l-1.625-9.751a1.2,1.2,0,0,0-1.178-1h-.365a1.194,1.194,0,0,0-1.178,1l-1.626,9.751Z" fill="#0f996d"/>
      <ellipse id="Ellipse_3" data-name="Ellipse 3" cx="6.868" cy="3.285" rx="6.868" ry="3.285" transform="translate(1232.307 463.982)" fill="#0f996d"/>
      <path id="Path_117" data-name="Path 117" d="M1230.193,455.024V458l-2.389.012v-2.986Z" fill="#d5dbe1"/>
      <path id="Path_118" data-name="Path 118" d="M1225.738,447.5a1.168,1.168,0,0,0-.466.765l-1.624,9.746h-1.792l1.625-9.746a1.193,1.193,0,0,1,1.182-1h.359A1.177,1.177,0,0,1,1225.738,447.5Z" fill="#00b871"/>
      <path id="Path_119" data-name="Path 119" d="M1224.018,458.01a2.3,2.3,0,0,0-2.162,2.389v7.763h-2.687V460.4a2.3,2.3,0,0,1,2.174-2.389Z" fill="#d5dbe1"/>
      <path id="Path_120" data-name="Path 120" d="M1240.525,474.062a12.234,12.234,0,0,1-1.35.072c-3.8,0-6.868-1.469-6.868-3.285v-3.583h2.688v3.583c0,1.6,2.377,2.927,5.53,3.213Z" fill="#d5dbe1"/>
      <path id="Path_121" data-name="Path 121" d="M1240.525,470.479a12.227,12.227,0,0,1-1.35.072c-3.8,0-6.868-1.469-6.868-3.285s3.07-3.284,6.868-3.284a12.483,12.483,0,0,1,1.35.071c-3.153.287-5.53,1.613-5.53,3.213s2.377,2.927,5.53,3.213Z" fill="#00b871"/>
      <path id="Path_122" data-name="Path 122" d="M1239.175,471.447c-4.426,0-7.763-1.8-7.763-4.181s3.337-4.18,7.763-4.18,7.764,1.8,7.764,4.18S1243.6,471.447,1239.175,471.447Zm0-6.57c-3.645,0-5.972,1.416-5.972,2.389s2.327,2.389,5.972,2.389,5.972-1.415,5.972-2.389S1242.82,464.877,1239.175,464.877Z" fill="#484848"/>
      <path id="Path_123" data-name="Path 123" d="M1239.175,475.03c-4.426,0-7.763-1.8-7.763-4.181v-3.583h1.791v3.583c0,.974,2.327,2.389,5.972,2.389s5.972-1.415,5.972-2.389v-3.583h1.792v3.583C1246.939,473.232,1243.6,475.03,1239.175,475.03Z" fill="#484848"/>
      <path id="Path_124" data-name="Path 124" d="M1227.231,461.294h3.583v1.792h-3.583Z" fill="#484848"/>
      <path id="Path_125" data-name="Path 125" d="M1221.856,461.294h3.584v1.792h-3.584Z" fill="#484848"/>
      <path id="Path_126" data-name="Path 126" d="M1229.321,469.058h-10.152a.9.9,0,0,1-.9-.9V460.4a3.289,3.289,0,0,1,3.285-3.285H1234.7a3.279,3.279,0,0,1,2.977,1.91l-1.63.744a1.482,1.482,0,0,0-1.347-.862h-13.138a1.5,1.5,0,0,0-1.493,1.493v6.867h9.256Z" fill="#484848"/>
      <path id="Path_127" data-name="Path 127" d="M1236.189,457.962H1234.4v-1.744a.3.3,0,0,0-.3-.3h-6.3v-1.792h6.3a2.092,2.092,0,0,1,2.09,2.09Z" fill="#484848"/>
      <path id="Path_128" data-name="Path 128" d="M1226.945,458.157l-1.626-9.751a.3.3,0,0,0-.294-.25h-.365a.3.3,0,0,0-.3.25l-1.625,9.751-1.767-.294,1.625-9.751a2.084,2.084,0,0,1,2.062-1.748h.365a2.085,2.085,0,0,1,2.062,1.748l1.625,9.751Z" fill="#484848"/>
    </g>
  </g>
</svg>
