<svg xmlns="http://www.w3.org/2000/svg" width="58" height="52.319" viewBox="0 0 58 52.319">
  <g id="Group_124" data-name="Group 124" transform="translate(-1192 -241.84)">
    <g id="Group_83" data-name="Group 83">
      <path id="Path_82" data-name="Path 82" d="M1197.966,284.023c0-11.517-5.966-19.427-5.966-24.977s3.19-17.206,28.722-17.206S1250,257.521,1250,263.625C1250,292.211,1197.966,304.421,1197.966,284.023Z" fill="#efefef"/>
      <g id="Group_82" data-name="Group 82">
        <path id="Path_83" data-name="Path 83" d="M1200.394,248.226h3.33v1.665h-3.33Z" fill="#a4afc1"/>
        <path id="Path_84" data-name="Path 84" d="M1209.968,248.226h3.331v1.665h-3.331Z" fill="#a4afc1"/>
        <path id="Path_85" data-name="Path 85" d="M1205.806,252.389h1.665v3.33h-1.665Z" fill="#a4afc1"/>
        <path id="Path_86" data-name="Path 86" d="M1205.806,242.815h1.665v3.33h-1.665Z" fill="#a4afc1"/>
      </g>
    </g>
    <path id="Path_103" data-name="Path 103" d="M1213.37,258.917V256.01a2.915,2.915,0,0,1,2.907-2.906h21.073a2.915,2.915,0,0,1,2.906,2.906v2.907Z" fill="#fff" stroke="#ddd" stroke-miterlimit="10" stroke-width="1"/>
    <path id="Path_104" data-name="Path 104" d="M1240.256,258.917v9.446a2.915,2.915,0,0,1-2.906,2.907h-21.073a2.915,2.915,0,0,1-2.907-2.907v-9.446Z" fill="#0f996d"/>
    <path id="Path_105" data-name="Path 105" d="M1231.537,282.9h-21.073a2.906,2.906,0,0,1-2.907-2.907V267.637a2.906,2.906,0,0,1,2.907-2.907h21.073a2.906,2.906,0,0,1,2.906,2.907V279.99A2.906,2.906,0,0,1,1231.537,282.9Z" fill="#fff" stroke="#ddd" stroke-miterlimit="10" stroke-width="1"/>
    <path id="Path_106" data-name="Path 106" d="M1215.55,274.177h-2.18a1.454,1.454,0,0,1-1.453-1.454v-2.18a1.454,1.454,0,0,1,1.453-1.453h2.18a1.454,1.454,0,0,1,1.453,1.453v2.18A1.454,1.454,0,0,1,1215.55,274.177Z" fill="#0f996d"/>
    <path id="Path_107" data-name="Path 107" d="M1213.37,258.917h3.27v5.813h-3.27Z" fill="#00b871"/>
    <path id="Path_108" data-name="Path 108" d="M1215.187,272.723v-2.18a1.447,1.447,0,0,1,.908-1.342,1.433,1.433,0,0,0-.545-.111h-2.18a1.454,1.454,0,0,0-1.453,1.453v2.18a1.454,1.454,0,0,0,1.453,1.454h2.18a1.433,1.433,0,0,0,.545-.111A1.448,1.448,0,0,1,1215.187,272.723Z" fill="#00b871"/>
    <path id="Path_109" data-name="Path 109" d="M1231.537,283.987h-21.073a4,4,0,0,1-4-4V267.637a4,4,0,0,1,4-4h21.073a4,4,0,0,1,4,4V279.99A4,4,0,0,1,1231.537,283.987Zm-21.073-18.167a1.819,1.819,0,0,0-1.817,1.817V279.99a1.82,1.82,0,0,0,1.817,1.817h21.073a1.819,1.819,0,0,0,1.816-1.817V267.637a1.819,1.819,0,0,0-1.816-1.817Z" fill="#484848"/>
    <path id="Path_110" data-name="Path 110" d="M1215.55,275.267h-2.18a2.546,2.546,0,0,1-2.543-2.544v-2.18A2.546,2.546,0,0,1,1213.37,268h2.18a2.546,2.546,0,0,1,2.543,2.543v2.18A2.546,2.546,0,0,1,1215.55,275.267Zm-2.18-5.087a.364.364,0,0,0-.363.363v2.18a.364.364,0,0,0,.363.364h2.18a.363.363,0,0,0,.363-.364v-2.18a.363.363,0,0,0-.363-.363Z" fill="#484848"/>
    <path id="Path_111" data-name="Path 111" d="M1210.827,277.447h20.346v2.18h-20.346Z" fill="#484848"/>
    <path id="Path_112" data-name="Path 112" d="M1214.1,257.827h25.433v2.18H1214.1Z" fill="#484848"/>
    <path id="Path_113" data-name="Path 113" d="M1239.341,271.812l-1.076-1.9a1.765,1.765,0,0,0,.9-1.553V256.01a1.819,1.819,0,0,0-1.816-1.816h-21.073a1.819,1.819,0,0,0-1.817,1.816v4.36h-2.18v-4.36a4,4,0,0,1,4-4h21.073a4,4,0,0,1,4,4v12.353a3.97,3.97,0,0,1-2.005,3.449Z" fill="#484848"/>
  </g>
</svg>
