<svg xmlns="http://www.w3.org/2000/svg" width="31.083" height="31.073" viewBox="0 0 31.083 31.073">
  <g id="Group_8" data-name="Group 8" transform="translate(-1261.391 -987.707)">
    <g id="Group_7" data-name="Group 7">
      <circle id="Ellipse_53" data-name="Ellipse 53" cx="1.396" cy="1.396" r="1.396" transform="translate(1269.67 998.283)" fill="#a0a0a0"/>
      <circle id="Ellipse_54" data-name="Ellipse 54" cx="1.396" cy="1.396" r="1.396" transform="translate(1281.3 998.283)" fill="#a0a0a0"/>
      <path id="Path_9" data-name="Path 9" d="M1276.932,987.707a15.537,15.537,0,1,0,15.542,15.536,15.539,15.539,0,0,0-15.542-15.536Zm5.764,8.642a3.329,3.329,0,1,1-3.33,3.33A3.334,3.334,0,0,1,1282.7,996.349Zm-11.63,0a3.329,3.329,0,1,1-3.33,3.33A3.334,3.334,0,0,1,1271.066,996.349Zm15.262,10.719a10.053,10.053,0,0,1-18.766,0,.967.967,0,1,1,1.791-.73,8.119,8.119,0,0,0,15.184,0,.967.967,0,1,1,1.791.73Z" fill="#a0a0a0"/>
    </g>
  </g>
</svg>
