<svg xmlns="http://www.w3.org/2000/svg" width="15.437" height="15.438" viewBox="0 0 15.437 15.438">
  <g id="Group_23" data-name="Group 23" transform="translate(-318.084 -247.801)">
    <g id="Group_22" data-name="Group 22">
      <g id="Group_21" data-name="Group 21">
        <path id="Path_16" data-name="Path 16" d="M333.238,253.3a1.121,1.121,0,0,0-.68-.364h0l-4.1-.567-1.624-3.88a1.114,1.114,0,0,0-2.056,0l-1.624,3.88-4.1.567a1.117,1.117,0,0,0-.589,1.941l3.091,2.757-.635,4.325a1.115,1.115,0,0,0,1.729,1.088L325.8,260.9l3.158,2.15a1.116,1.116,0,0,0,1.73-1.087l-.635-4.328,3.091-2.756A1.117,1.117,0,0,0,333.238,253.3Zm-4.138,3.711a.554.554,0,0,0-.178.492l.661,4.631-3.469-2.358a.55.55,0,0,0-.619,0l-3.49,2.344.679-4.619a.552.552,0,0,0-.178-.49l-3.308-2.981,4.415-.61a.549.549,0,0,0,.433-.333l1.763-4.18.005.008,1.745,4.17a.549.549,0,0,0,.433.333l4.421.637Z" fill="#a0a0a0"/>
      </g>
    </g>
  </g>
</svg>
