<svg xmlns="http://www.w3.org/2000/svg" width="17.762" height="17.021" viewBox="0 0 17.762 17.021">
  <path id="Path_55" data-name="Path 55" d="M488.883,183.923a.943.943,0,0,0-.813-.649l-5.126-.466-2.027-4.744a.945.945,0,0,0-1.737,0l-2.027,4.744-5.127.466a.945.945,0,0,0-.536,1.652l3.875,3.4-1.143,5.033a.947.947,0,0,0,.92,1.155.934.934,0,0,0,.484-.135l4.422-2.643,4.421,2.643a.944.944,0,0,0,1.4-1.02l-1.143-5.033,3.875-3.4A.944.944,0,0,0,488.883,183.923Z" transform="translate(-471.167 -177.491)" fill="#485e76"/>
</svg>
