<svg xmlns="http://www.w3.org/2000/svg" width="12.601" height="14.392" viewBox="0 0 12.601 14.392">
  <g id="Group_93" data-name="Group 93" transform="translate(-874.987 -848.69)">
    <path id="Path_63" data-name="Path 63" d="M886.676,851.4q-.053.688-.1,1.378-.1,1.331-.2,2.661c0,.033,0,.066-.005.1-.033.876-.053,1.752-.1,2.626-.046.789-.131,1.575-.187,2.362-.02.3-.015.6-.007.9a1.524,1.524,0,0,1-1.656,1.657q-3.215-.04-6.429,0a1.409,1.409,0,0,1-1.5-1.358c-.018-.527-.058-1.053-.1-1.579-.06-.8-.128-1.608-.192-2.412q0-.049-.006-.1c-.033-.876-.054-1.752-.1-2.626-.046-.788-.135-1.574-.185-2.362-.027-.414-.012-.83-.016-1.245Z" fill="#d9dce1"/>
    <path id="Path_64" data-name="Path 64" d="M886.676,851.4H875.885c-.928.013-.906-.1-.9-.935s.038-.87.869-.871,1.662-.009,2.493.006c.3.005.526-.046.616-.361.13-.451.477-.544.885-.543.847,0,1.7.017,2.542-.006a1.06,1.06,0,0,1,1.164.629,1.632,1.632,0,0,0,.2.275c.931,0,1.893,0,2.855,0,.26,0,.52.052.752.077a1.508,1.508,0,0,1,.188,1.14c-.059.412-.12.588-.631.577C886.842,851.391,886.759,851.4,886.676,851.4Z" fill="#acb4bc"/>
  </g>
</svg>
