<svg xmlns="http://www.w3.org/2000/svg" width="12.601" height="14.392" viewBox="0 0 12.601 14.392">
  <g id="Group_95" data-name="Group 95" transform="translate(-874.987 -881.366)">
    <path id="Path_67" data-name="Path 67" d="M886.676,884.077q-.053.688-.1,1.378-.1,1.33-.2,2.661c0,.033,0,.067-.005.1-.033.875-.053,1.751-.1,2.626-.046.788-.131,1.574-.187,2.362-.02.3-.015.6-.007.9a1.524,1.524,0,0,1-1.656,1.658q-3.215-.042-6.429,0a1.409,1.409,0,0,1-1.5-1.358c-.018-.527-.058-1.053-.1-1.579-.06-.8-.128-1.608-.192-2.412q0-.05-.006-.1c-.033-.875-.054-1.751-.1-2.626-.046-.788-.135-1.574-.185-2.362-.027-.414-.012-.83-.016-1.245Z" fill="#f25f5f"/>
    <path id="Path_68" data-name="Path 68" d="M886.676,884.077H875.885c-.928.014-.906-.1-.9-.935s.038-.87.869-.87,1.662-.01,2.493.005c.3.005.526-.045.616-.361.13-.451.477-.544.885-.543.847,0,1.7.017,2.542-.006a1.061,1.061,0,0,1,1.164.629,1.631,1.631,0,0,0,.2.276c.931,0,1.893-.006,2.855,0,.26,0,.52.052.752.077a1.509,1.509,0,0,1,.188,1.14c-.059.412-.12.588-.631.577C886.842,884.067,886.759,884.074,886.676,884.077Z" fill="#f25f5f"/>
  </g>
</svg>
