<svg xmlns="http://www.w3.org/2000/svg" width="17.728" height="17.728" viewBox="0 0 17.728 17.728">
  <g id="Group_104" data-name="Group 104" transform="translate(-408.945 -600)">
    <g id="Group_103" data-name="Group 103">
      <path id="Path_57" data-name="Path 57" d="M426.673,608.859A8.864,8.864,0,1,1,417.814,600,8.86,8.86,0,0,1,426.673,608.859Zm-10.92-1.405c0,.242,0,.412,0,.582,0,.9,0,1.793,0,2.689,0,.59.194.776.788.78q1.245.006,2.491,0c.639,0,.828-.188.83-.822,0-.922,0-1.845,0-2.768,0-.14.013-.28.021-.461.376,0,.716.006,1.056,0a.606.606,0,0,0,.636-.482.675.675,0,0,0-.154-.624q-.977-1.319-1.948-2.641c-.344-.467-.681-.94-1.038-1.4a.661.661,0,0,0-1.076,0q-.32.4-.636.808-1.254,1.605-2.508,3.209a.737.737,0,0,0-.125.81c.13.292.387.322.664.317C415.07,607.449,415.384,607.454,415.753,607.454Zm.118,6.135h3.863v-1.148h-3.863Zm.532.957V615.7h2.83v-1.157Z" fill="#485e76"/>
      <path id="Path_58" data-name="Path 58" d="M418.648,610.279h-1.654c-.012-.148-.032-.285-.032-.423,0-.922,0-1.845,0-2.767,0-.675-.153-.821-.841-.846-.061,0-.123-.013-.265-.029l2.033-2.6,1.929,2.611c-.21.01-.346.018-.483.023-.46.017-.679.221-.683.683-.01.961,0,1.923,0,2.885Z" fill="#485e76"/>
    </g>
  </g>
</svg>
