<svg xmlns="http://www.w3.org/2000/svg" width="15.003" height="17.159" viewBox="0 0 15.003 17.159">
  <g id="Group_23" data-name="Group 23" transform="translate(-409.997 -361.301)">
    <g id="Group_22" data-name="Group 22">
      <g id="Group_20" data-name="Group 20">
        <path id="Path_17" data-name="Path 17" d="M417.493,378.456c-1.865,0-3.73.005-5.6,0-1.291,0-1.941-.615-1.9-1.893a10.693,10.693,0,0,1,.311-2.637,4.431,4.431,0,0,1,4.593-2.959c.976.116,1.938.366,2.915.448a3.965,3.965,0,0,0,1.51-.255,4.1,4.1,0,0,1,3.919.759A4.471,4.471,0,0,1,425,375.606c0,.377.008.754,0,1.131a1.621,1.621,0,0,1-1.727,1.715C421.342,378.466,419.418,378.456,417.493,378.456Z" fill="#485e76"/>
      </g>
      <g id="Group_21" data-name="Group 21">
        <path id="Path_18" data-name="Path 18" d="M421.779,365.612a4.289,4.289,0,1,1-4.266-4.311A4.357,4.357,0,0,1,421.779,365.612Z" fill="#485e76"/>
      </g>
    </g>
  </g>
</svg>
