<svg xmlns="http://www.w3.org/2000/svg" width="13.331" height="15.512" viewBox="0 0 13.331 15.512">
  <g id="Group_102" data-name="Group 102" transform="translate(-410.669 -539.911)">
    <path id="Path_55" data-name="Path 55" d="M420.976,543.023h2.755l-2.9-2.848v2.7A.144.144,0,0,0,420.976,543.023Z" fill="#485e76"/>
    <path id="Path_56" data-name="Path 56" d="M420.976,543.932a1.055,1.055,0,0,1-1.054-1.053v-2.968h-7.557a1.7,1.7,0,0,0-1.7,1.7v12.12a1.7,1.7,0,0,0,1.7,1.7H422.3a1.7,1.7,0,0,0,1.7-1.7v-9.795Zm-1.039,7.734h-5.854a.454.454,0,0,1,0-.909h5.854a.454.454,0,0,1,0,.909Zm-6.308-2.272a.454.454,0,0,1,.454-.455h5.224a.454.454,0,0,1,0,.909h-5.224A.454.454,0,0,1,413.629,549.394Zm6.861-1.363h-6.407a.454.454,0,0,1,0-.909h6.407a.454.454,0,0,1,0,.909Z" fill="#485e76"/>
  </g>
</svg>
